<?xml version="1.0" encoding="utf-8"?>
<!-- Generator: Adobe Illustrator 16.0.0, SVG Export Plug-In . SVG Version: 6.00 Build 0)  -->
<!DOCTYPE svg PUBLIC "-//W3C//DTD SVG 1.1//EN" "http://www.w3.org/Graphics/SVG/1.1/DTD/svg11.dtd">
<svg version="1.1" id="Слой_1" xmlns="http://www.w3.org/2000/svg" xmlns:xlink="http://www.w3.org/1999/xlink" x="0px" y="0px"
	 width="24px" height="24px" viewBox="0 0 24 24" enable-background="new 0 0 24 24" xml:space="preserve">
<path fill="none" stroke="#000000" stroke-width="2" stroke-linecap="round" stroke-linejoin="round" d="M15.05,5
	C17.048,5.39,18.61,6.952,19,8.95 M15.05,1c4.18,0.464,7.48,3.761,7.95,7.94 M22,16.92v3c0.004,1.104-0.887,2.004-1.992,2.008
	c-0.063,0-0.125-0.002-0.188-0.008c-3.078-0.334-6.033-1.386-8.63-3.07c-2.416-1.535-4.465-3.584-6-6
	C3.5,10.241,2.448,7.271,2.12,4.18c-0.1-1.1,0.712-2.073,1.812-2.172C3.991,2.003,4.05,2,4.11,2h3c1.004-0.01,1.86,0.726,2,1.72
	c0.127,0.96,0.362,1.902,0.7,2.81c0.275,0.731,0.099,1.555-0.45,2.11L8.09,9.91c1.424,2.503,3.497,4.576,6,6l1.27-1.27
	c0.556-0.55,1.38-0.725,2.111-0.451c0.906,0.34,1.85,0.574,2.809,0.701C21.285,15.031,22.025,15.904,22,16.92z"/>
</svg>
