<?xml version="1.0" encoding="UTF-8"?>
<svg width="18px" height="18px" viewBox="0 0 18 18" version="1.1" xmlns="http://www.w3.org/2000/svg" xmlns:xlink="http://www.w3.org/1999/xlink">
    <!-- Generator: Sketch 51.2 (57519) - http://www.bohemiancoding.com/sketch -->
    <title>icon-your-glass-black</title>
    <desc>Created with Sketch.</desc>
    <defs></defs>
    <g id="Page-1" stroke="none" stroke-width="1" fill="none" fill-rule="evenodd">
        <g id="icon-your-glass-black" fill="#000000" fill-rule="nonzero">
            <path d="M16.8031901,1.44278873 L16.1771831,0.889035211 C14.7192465,-0.403795775 12.4867394,-0.269746479 11.1943521,1.18857042 L9.40278169,3.20976761 C8.99841549,3.66604225 9.04043662,4.36652113 9.49652113,4.77126761 L9.66466901,4.92046479 C10.122338,5.32622535 10.820662,5.28433099 11.2267394,4.82659859 L13.0181831,2.80546479 C13.4177958,2.35502113 14.1100352,2.31357042 14.5607324,2.7125493 L15.1859789,3.26725352 C15.6368028,3.66673944 15.6792676,4.35885211 15.2790845,4.8095493 L11.3616761,9.22880282 C11.0301338,9.60344366 10.4875986,9.70447183 10.0423521,9.47440141 C9.55546479,9.22297183 8.96165493,9.33344366 8.59810563,9.7434507 L8.56755634,9.77792958 C8.32157746,10.0553451 8.21902817,10.4236479 8.28621127,10.7884014 C8.35345775,11.1529648 8.58042254,11.4604859 8.90892254,11.6321831 C9.4284507,11.9037042 9.98949296,12.0351549 10.5450211,12.0351549 C11.5294437,12.0351549 12.4968169,11.6224225 13.1860775,10.8451901 L17.1032324,6.42644366 C18.394162,4.97009155 18.2597958,2.73473239 16.8031901,1.44278873 Z" id="Shape"></path>
            <path d="M8.49283099,13.2199225 L8.32430282,13.0705986 C7.86771127,12.6660423 7.16704225,12.7085704 6.76261268,13.1649718 L4.9718662,15.1859155 C4.57206338,15.6362324 3.88033099,15.678 3.43001408,15.2792746 L2.80388028,14.7238099 C2.35292958,14.3244507 2.31059155,13.6329085 2.71090141,13.1820845 L6.6281831,8.76314789 C6.95294366,8.3963662 7.48730282,8.29147183 7.92773239,8.50785211 C8.43388732,8.75655634 9.04848592,8.63562676 9.42319014,8.21275352 L9.43726056,8.19690845 C9.67797887,7.9251338 9.77926056,7.56443662 9.71524648,7.20728873 C9.65123239,6.85007746 9.4310493,6.54705634 9.11104225,6.37580282 C7.66419718,5.60129577 5.89328873,5.91819718 4.80454225,7.14682394 L0.887007042,11.5648732 L0.887007042,11.5649366 C-0.404112676,13.0212887 -0.269809859,15.2565845 1.18654225,16.5480211 L1.8125493,17.1025352 C2.48330282,17.6972324 3.31909859,17.9893521 4.15210563,17.9893521 C5.12778169,17.9893521 6.09940141,17.5883451 6.79620423,16.8026197 L8.58720423,14.7816761 C8.99239437,14.3241338 8.9508169,13.6259366 8.49283099,13.2199225 Z" id="Shape"></path>
        </g>
    </g>
</svg>