<?xml version="1.0" encoding="UTF-8"?>
<svg width="14px" height="14px" viewBox="0 0 14 14" version="1.1" xmlns="http://www.w3.org/2000/svg" xmlns:xlink="http://www.w3.org/1999/xlink">
    <!-- Generator: sketchtool 51.2 (57519) - http://www.bohemiancoding.com/sketch -->
    <title>63C97314-81CF-4A63-B396-E116F62A4067</title>
    <desc>Created with sketchtool.</desc>
    <defs></defs>
    <g id="Page-1" stroke="none" stroke-width="1" fill="none" fill-rule="evenodd">
        <g id="step-product" transform="translate(-249.000000, -2.000000)" fill-rule="nonzero">
            <g id="info-(2)">
                <g transform="translate(249.000000, 2.000000)">
                    <path d="M13.9762817,6.98830986 C13.9762817,3.12853521 10.8475775,8.45070423e-05 6.98825352,8.45070423e-05 C3.12873239,8.45070423e-05 0,3.12853521 0,6.98830986 C0,10.847493 3.12873239,13.9761972 6.98825352,13.9761972 C10.8475775,13.9761972 13.9762817,10.847493 13.9762817,6.98830986 Z" id="Shape" fill="#CED1D2"></path>
                    <g id="Group" transform="translate(4.901408, 1.943662)" fill="#FFFFFF">
                        <path d="M3.97884507,8.18464789 C3.93977465,8.12740845 3.8648169,8.10704225 3.80222535,8.13670423 C3.10977465,8.46450704 2.32385915,8.81107042 2.16960563,8.84135211 C2.16571831,8.83788732 2.1595493,8.8315493 2.15146479,8.82059155 C2.13056338,8.79228169 2.12039437,8.75529577 2.12039437,8.70749296 C2.12039437,8.31580282 2.41602817,7.12425352 2.99904225,5.16611268 C3.49061972,3.52087324 3.54746479,3.18022535 3.54746479,3.06712676 C3.54746479,2.89253521 3.48061972,2.74501408 3.35408451,2.64047887 C3.23388732,2.54135211 3.06594366,2.49112676 2.85495775,2.49112676 C2.504,2.49112676 2.09723944,2.6243662 1.61140845,2.89847887 C1.14061972,3.16419718 0.615577465,3.61425352 0.0509577465,4.23614085 C0.00676056338,4.28484507 0.00214084507,4.35766197 0.0398309859,4.41157746 C0.0775774648,4.46552113 0.147577465,4.48605634 0.208450704,4.46126761 C0.406676056,4.3803662 1.40287324,3.97228169 1.54808451,3.88107042 C1.66698592,3.80653521 1.76991549,3.76870423 1.85402817,3.76870423 C1.85704225,3.76870423 1.8596338,3.7688169 1.86180282,3.76898592 C1.8628169,3.77456338 1.86377465,3.78307042 1.86377465,3.79526761 C1.86377465,3.88109859 1.84611268,3.98270423 1.81149296,4.09676056 C0.962591549,6.84721127 0.549943662,8.53332394 0.549943662,9.25152113 C0.549943662,9.50498592 0.620394366,9.70904225 0.759295775,9.85794366 C0.90084507,10.0098592 1.09177465,10.0868732 1.32678873,10.0868732 C1.57723944,10.0868732 1.88205634,9.98225352 2.25861972,9.76704225 C2.62301408,9.5588169 3.1791831,9.10076056 3.95898592,8.36656338 C4.00949296,8.31904225 4.01791549,8.24188732 3.97884507,8.18464789 Z" id="Shape"></path>
                        <path d="M3.95160563,0.216112676 C3.81287324,0.0741126761 3.63535211,0.00211267606 3.42402817,0.00211267606 C3.16092958,0.00211267606 2.93177465,0.106084507 2.74301408,0.31115493 C2.55726761,0.51284507 2.46307042,0.760338028 2.46307042,1.04673239 C2.46307042,1.27301408 2.5324507,1.46053521 2.66926761,1.60405634 C2.80791549,1.74974648 2.98304225,1.82360563 3.18971831,1.82360563 C3.44205634,1.82360563 3.66997183,1.71380282 3.86709859,1.49723944 C4.06078873,1.28447887 4.15901408,1.03433803 4.15901408,0.753774648 C4.15904225,0.538169014 4.08926761,0.357295775 3.95160563,0.216112676 Z" id="Shape"></path>
                    </g>
                </g>
            </g>
        </g>
    </g>
</svg>