<?xml version="1.0" encoding="UTF-8"?>
<svg width="18px" height="18px" viewBox="0 0 18 18" version="1.1" xmlns="http://www.w3.org/2000/svg" xmlns:xlink="http://www.w3.org/1999/xlink">
    <!-- Generator: sketchtool 51.2 (57519) - http://www.bohemiancoding.com/sketch -->
    <title>637A65EA-BA3A-4103-BE1B-0AFE443E4904</title>
    <desc>Created with sketchtool.</desc>
    <defs></defs>
    <g id="Page-1" stroke="none" stroke-width="1" fill="none" fill-rule="evenodd">
        <g id="Glass-Bus-Copy" transform="translate(-653.000000, -1524.000000)" fill="#43AA8B">
            <g id="Form-1" transform="translate(217.000000, 1231.000000)">
                <g id="Form/time" transform="translate(420.000000, 266.000000)">
                    <g id="Type">
                        <g id="Box" transform="translate(0.000000, 16.000000)">
                            <g id="tick-yes" transform="translate(16.000000, 11.000000)">
                                <path d="M8.99635765,0.00216575795 C11.1997706,0.00216575795 13.4041358,0.00470570606 15.6072313,0.000895783887 C15.9817671,-0.000374190172 16.3474156,0.0342326029 16.6860848,0.204409127 C17.4980021,0.611118319 17.9445884,1.26959987 17.9890249,2.1785838 C18.0102909,2.62624966 17.9941033,3.07518549 17.9941033,3.52443881 C17.9941033,7.52390462 17.9941033,11.5236879 17.9928337,15.5222012 C17.9928337,15.7330169 17.9928337,15.9473251 17.9544279,16.1521084 C17.7449418,17.2385712 16.8533562,17.9938882 15.7437147,17.9951582 C11.244207,18.0011906 6.7434298,18.0024606 2.24423957,17.9938882 C0.98192708,17.9913483 0.00876889689,17.0179132 0.00622967136,15.7552415 C-0.00234021479,11.2544534 -0.00138800522,6.75239537 0.0049600586,2.2519248 C0.00749928413,0.960678679 0.964469905,0.00946810878 2.26645779,0.00343573201 C4.50922874,-0.00418411235 6.75231709,0.00343573201 8.99635765,0.00216575795 L8.99635765,0.00216575795 Z M9.02492394,1.12323536 L2.53180686,1.12323536 C2.39913233,1.12323536 2.26645779,1.11815546 2.13632249,1.12958523 C1.60435474,1.17784424 1.18030407,1.6007456 1.12824995,2.13413471 C1.11587123,2.26557702 1.12094968,2.39828931 1.12094968,2.52973163 L1.12094968,15.4415579 C1.12094968,15.5469657 1.11841045,15.6523736 1.1231715,15.7577814 C1.14919856,16.3480019 1.53357383,16.7785231 2.11505647,16.8626589 C2.24550918,16.881391 2.37818372,16.8775811 2.51085825,16.8775811 C6.84023778,16.878851 11.1686651,16.8775811 15.4970924,16.8775811 C15.5627949,16.8775811 15.6297669,16.878851 15.6954694,16.8763111 C16.4020089,16.8490066 16.8495474,16.4013408 16.8733526,15.6993626 C16.8768441,15.606337 16.8743049,15.5145814 16.8743049,15.4215558 L16.8743049,2.54941623 C16.8743049,2.43035616 16.8793833,2.31129609 16.8695438,2.193506 C16.8187593,1.57598111 16.372173,1.14799985 15.7560934,1.12323536 C15.6370672,1.11815546 15.518041,1.12069541 15.4002844,1.12069541 C13.2740005,1.12323536 11.1499383,1.12323536 9.02492394,1.12323536 L9.02492394,1.12323536 Z" id="Fill-1"></path>
                                <path d="M8.30463929,12.2092426 C8.41585924,12.0262224 8.50103401,11.8928289 8.5795215,11.7555638 C9.77302417,9.69165942 10.964767,7.62669919 12.1582697,5.56314681 C12.2240866,5.44911117 12.284624,5.32944414 12.3687429,5.23054286 C12.5788641,4.98135386 12.8924621,4.9320792 13.1592492,5.09292577 C13.4204049,5.25095664 13.5263454,5.55751542 13.41055,5.85457123 C13.373594,5.94924897 13.3215036,6.03723944 13.2704692,6.12663775 C11.8612139,8.57277267 10.4505507,11.0185556 9.03988762,13.4629307 C8.787179,13.9014752 8.39931703,13.9785549 8.02271784,13.6389117 C7.08931499,12.7949071 6.16541511,11.9396398 5.24679466,11.0805009 C4.94445942,10.7971716 4.92510152,10.4547127 5.16021204,10.1840541 C5.39954611,9.90881989 5.78036884,9.89650122 6.09361489,10.1798305 C6.70286087,10.7285391 7.30084407,11.2878065 7.90445866,11.8435542 C8.02271784,11.9505506 8.14097703,12.057899 8.30463929,12.2092426 L8.30463929,12.2092426 Z" id="Fill-2"></path>
                            </g>
                        </g>
                    </g>
                </g>
            </g>
        </g>
    </g>
</svg>