<?xml version="1.0" encoding="utf-8"?>
<!-- Generator: Adobe Illustrator 16.0.0, SVG Export Plug-In . SVG Version: 6.00 Build 0)  -->
<!DOCTYPE svg PUBLIC "-//W3C//DTD SVG 1.1//EN" "http://www.w3.org/Graphics/SVG/1.1/DTD/svg11.dtd">
<svg version="1.1" id="Слой_1" xmlns="http://www.w3.org/2000/svg" xmlns:xlink="http://www.w3.org/1999/xlink" x="0px" y="0px"
	 width="24px" height="24px" viewBox="0 0 24 24" enable-background="new 0 0 24 24" xml:space="preserve">
<path fill="none" stroke="#000000" stroke-width="2" stroke-linecap="round" stroke-linejoin="round" d="M22.54,6.42
	c-0.241-0.966-0.981-1.729-1.94-2C18.88,4,12,4,12,4S5.12,4,3.4,4.46c-0.958,0.271-1.698,1.034-1.94,2
	C1.145,8.206,0.991,9.976,1,11.75c-0.011,1.787,0.143,3.571,0.46,5.33C1.727,18.016,2.462,18.743,3.4,19
	c1.72,0.46,8.6,0.46,8.6,0.46s6.88,0,8.6-0.46c0.959-0.271,1.699-1.034,1.94-2c0.313-1.732,0.466-3.49,0.46-5.25
	C23.012,9.963,22.857,8.179,22.54,6.42z"/>
<polygon fill="none" stroke="#000000" stroke-width="2" stroke-linecap="round" stroke-linejoin="round" points="9.75,15.02 
	15.5,11.75 9.75,8.48 "/>
</svg>
