<svg xmlns="http://www.w3.org/2000/svg" width="30" height="30" viewBox="0 0 30 30">
    <g fill="#FFF" fill-rule="nonzero">
        <path d="M11.692 23.256c2.82 0 5.385-1 7.385-2.692l8.974 8.974c.205.206.462.308.744.308a1.052 1.052 0 0 0 .744-1.795l-8.975-8.974c1.667-2 2.692-4.59 2.692-7.385 0-6.384-5.18-11.564-11.564-11.564C5.333.128.128 5.333.128 11.692c0 6.385 5.205 11.564 11.564 11.564zm0-21.025c5.231 0 9.462 4.256 9.462 9.461 0 5.231-4.23 9.462-9.462 9.462-5.23 0-9.461-4.257-9.461-9.462s4.256-9.461 9.461-9.461z"/>
        <path d="M10.641 18.538c0 .59.462 1.052 1.051 1.052a1.04 1.04 0 0 0 1.052-1.052v-5.794h5.794a1.04 1.04 0 0 0 1.052-1.052 1.04 1.04 0 0 0-1.052-1.051h-5.794V4.846a1.04 1.04 0 0 0-1.052-1.051 1.04 1.04 0 0 0-1.051 1.051v5.795H4.846a1.04 1.04 0 0 0-1.051 1.051c0 .59.461 1.052 1.051 1.052h5.795v5.794z"/>
    </g>
</svg>
