<svg xmlns="http://www.w3.org/2000/svg" width="20" height="18.5" viewBox="0 0 20 18.5">
  <defs>
    <style>
      .cls-1 {
        fill: #fff;
        fill-rule: evenodd;
      }
    </style>
  </defs>
  <path id="download.svg" class="cls-1" d="M1152.43,6003.27a0.572,0.572,0,0,0-.58.57v5.21a2.567,2.567,0,0,1-2.56,2.57h-12.58a2.574,2.574,0,0,1-2.56-2.57v-5.29a0.58,0.58,0,0,0-.58-0.58,0.572,0.572,0,0,0-.57.58v5.29a3.715,3.715,0,0,0,3.71,3.71h12.58a3.715,3.715,0,0,0,3.71-3.71v-5.21A0.57,0.57,0,0,0,1152.43,6003.27Zm-9.83,4.94a0.556,0.556,0,0,0,.8,0l3.64-3.63a0.573,0.573,0,0,0,0-.82,0.58,0.58,0,0,0-.81,0l-2.66,2.67v-11.62a0.57,0.57,0,1,0-1.14,0v11.62l-2.67-2.67a0.58,0.58,0,0,0-.81,0,0.592,0.592,0,0,0,0,.82Z" transform="translate(-1133 -5994.25)"/>
</svg>
