<svg xmlns="http://www.w3.org/2000/svg" width="45" height="58" viewBox="0 0 45 58">
  <defs>
    <style>
      .cls-1 {
        fill: #e41b52;
        fill-rule: evenodd;
      }
    </style>
  </defs>
  <path id="icon10.svg" class="cls-1" d="M810.45,5837.19l-0.771-.77-10.1-10.1-0.771-.77a1.887,1.887,0,0,0-1.328-.55H768.463c-1.186,0-2.463.92-2.463,2.93V5881a2.291,2.291,0,0,0,1.838,1.91c0.05,0.01.1,0.03,0.15,0.04a2.519,2.519,0,0,0,.475.05h40.074a2.519,2.519,0,0,0,.475-0.05c0.052-.01.1-0.03,0.15-0.04A2.291,2.291,0,0,0,811,5881v-42.02A2.288,2.288,0,0,0,810.45,5837.19Zm-3.015-.19H799v-8.44Zm-38.972,44a0.655,0.655,0,0,1-.2-0.05,0.452,0.452,0,0,1-.265-0.41V5866h41v14.54a0.452,0.452,0,0,1-.265.41,0.655,0.655,0,0,1-.2.05H768.463ZM768,5864v-36.07c0-.22.033-0.93,0.463-0.93h28.6a1.594,1.594,0,0,0-.058.39V5839h11.609a1.679,1.679,0,0,0,.39-0.06c0,0.02,0,.02,0,0.04V5864H768Zm13.542,5.74a3.372,3.372,0,0,0-1.128-.61,3.989,3.989,0,0,0-1.271-.21h-2.9V5879h1.641v-3.64H779.1a4.192,4.192,0,0,0,1.449-.23,3.081,3.081,0,0,0,1.121-.66,2.916,2.916,0,0,0,.725-1.04,3.6,3.6,0,0,0,.26-1.39,2.782,2.782,0,0,0-.308-1.31A3.382,3.382,0,0,0,781.542,5869.74Zm-0.622,3.33a1.6,1.6,0,0,1-.4.65,1.473,1.473,0,0,1-.54.34,2.039,2.039,0,0,1-.6.1h-1.5v-3.99h1.23a2.112,2.112,0,0,1,1.012.2,1.611,1.611,0,0,1,.875,1.1,2.909,2.909,0,0,1,.068.57A3.07,3.07,0,0,1,780.92,5873.07Zm10.534-2.67a4.464,4.464,0,0,0-1.6-1.07,5.735,5.735,0,0,0-2.235-.41h-3.035V5879H788.4c0.127,0,.323-0.02.588-0.05a3.673,3.673,0,0,0,.875-0.22,4.312,4.312,0,0,0,.991-0.51,3.477,3.477,0,0,0,.923-0.94,5.25,5.25,0,0,0,.677-1.47,7.436,7.436,0,0,0,.267-2.13,5.088,5.088,0,0,0-.314-1.76A4.434,4.434,0,0,0,791.454,5870.4Zm-1.2,6.33a2.721,2.721,0,0,1-2.406,1.07h-1.627v-7.63h0.957a5.148,5.148,0,0,1,1.914.3,3.162,3.162,0,0,1,1.169.81,2.665,2.665,0,0,1,.581,1.12,5.194,5.194,0,0,1,.15,1.24A5.408,5.408,0,0,1,790.258,5876.73Zm4.84,2.27h1.668v-4.54h4.211v-1.12h-4.211v-3.17H801.4v-1.25h-6.3V5879Zm2.83-31.04a19.187,19.187,0,0,0-3.358.36,31.981,31.981,0,0,1-5.088-7.56c1.337-5.63.668-6.43,0.373-6.81a2.149,2.149,0,0,0-1.261-1.04,4.67,4.67,0,0,0-1.016.17,1.905,1.905,0,0,0-1.134,1.21c-0.707,1.66.263,4.47,1.261,6.65a67.367,67.367,0,0,1-3.788,10.75c-3.79,1.73-5.8,3.44-5.985,5.06a2.409,2.409,0,0,0,1.115,2.25,1.619,1.619,0,0,0,.967.32h0c0.875,0,1.759-.67,2.782-2.11a27.663,27.663,0,0,0,2.383-4.25,47.757,47.757,0,0,1,8.828-2.82c1.58,1.52,3,2.29,4.211,2.29a2.676,2.676,0,0,0,2.22-1.19,2.025,2.025,0,0,0,.39-2.16C800.443,5848.33,799.494,5847.96,797.928,5847.96Zm-17.892,9.67a0.746,0.746,0,0,1-.431-0.69c0.062-.55.933-1.54,3.07-2.74C781.055,5857.19,780.185,5857.59,780.036,5857.63Zm8.2-22.92c0.043-.01,1.045,1.1.1,3.22A2.4,2.4,0,0,1,788.236,5834.71Zm-2.067,16.03a71,71,0,0,0,2.674-7.57,34.29,34.29,0,0,0,3.822,5.55A49.966,49.966,0,0,0,786.169,5850.74Zm12.9-.48a1.509,1.509,0,0,1-1.21.44c-0.533,0-.732-0.32-1.547-0.94a13.711,13.711,0,0,1,1.811-.11,2.079,2.079,0,0,1,1.175.19A1.442,1.442,0,0,1,799.07,5850.26Z" transform="translate(-766 -5825)"/>
</svg>
