<svg id="icon5.svg" xmlns="http://www.w3.org/2000/svg" width="110.875" height="86" viewBox="0 0 110.875 86">
  <defs>
    <style>
      .cls-1 {
        fill: #4063a9;
      }

      .cls-1, .cls-3 {
        fill-rule: evenodd;
      }

      .cls-2, .cls-3 {
        fill: none;
        stroke: #4063a9;
        stroke-width: 2px;
      }
    </style>
  </defs>
  <path id="Фигура_12" data-name="Фигура 12" class="cls-1" d="M778.052,4980.89a1.44,1.44,0,0,1-1.447-1.44,2.9,2.9,0,1,0-5.791,0,1.448,1.448,0,0,1-2.895,0,5.791,5.791,0,1,1,11.581,0,1.44,1.44,0,0,1-1.448,1.44h0Zm0,0-4.342,26.05a5.792,5.792,0,0,1-5.791-5.79,1.448,1.448,0,0,1,2.895,0,2.9,2.9,0,0,0,2.9,2.9,1.445,1.445,0,1,1,0,2.89h0Zm0,0-4.343-4.34a1.449,1.449,0,0,1-1.448-1.45v-21.7a1.448,1.448,0,1,1,2.895,0v21.7a1.448,1.448,0,0,1-1.447,1.45h0Zm0,0,89.754-21.71a1.44,1.44,0,0,1-1.448-1.44,2.9,2.9,0,1,0-5.79,0,1.448,1.448,0,0,1-2.895,0,5.791,5.791,0,1,1,11.581,0,1.44,1.44,0,0,1-1.448,1.44h0Zm0,0-4.343,26.05a1.445,1.445,0,1,1,0-2.89,2.9,2.9,0,0,0,2.895-2.9,1.448,1.448,0,0,1,2.9,0,5.792,5.792,0,0,1-5.791,5.79h0Zm0,0,4.343-4.34a1.449,1.449,0,0,1-1.448-1.45v-21.7a1.448,1.448,0,1,1,2.9,0v21.7a1.449,1.449,0,0,1-1.448,1.45h0Zm0,0-4.343,4.34H773.71a1.445,1.445,0,1,1,0-2.89h81.068a1.445,1.445,0,1,1,0,2.89h0Zm0,0-4.343,5.8a1.439,1.439,0,0,1-1.447-1.44v-31.85a1.448,1.448,0,1,1,2.895,0v31.85a1.44,1.44,0,0,1-1.448,1.44h0Zm0,0-72.383,0a1.448,1.448,0,0,1-1.447-1.45v-31.85a1.448,1.448,0,0,1,2.895,0v31.85a1.449,1.449,0,0,1-1.448,1.45h0Zm0,0,0-18.83a1.44,1.44,0,0,1-1.447-1.44,5.8,5.8,0,0,1,5.79-5.8,1.45,1.45,0,0,1,0,2.9,2.9,2.9,0,0,0-2.895,2.9,1.44,1.44,0,0,1-1.448,1.44h0Zm0,0-4.342-27.49a1.449,1.449,0,0,1-1.448-1.45,5.8,5.8,0,0,1,5.79-5.79,1.45,1.45,0,0,1,0,2.9,2.9,2.9,0,0,0-2.895,2.89,1.448,1.448,0,0,1-1.447,1.45h0Zm0,0,81.071,0a1.449,1.449,0,0,1-1.448-1.45,2.9,2.9,0,0,0-2.895-2.89,1.45,1.45,0,0,1,0-2.9,5.8,5.8,0,0,1,5.791,5.79,1.449,1.449,0,0,1-1.448,1.45h0Zm0,0-40.537,0a1.449,1.449,0,0,1-1.448-1.45,5.8,5.8,0,0,1,5.791-5.79,1.45,1.45,0,0,1,0,2.9,2.9,2.9,0,0,0-2.9,2.89,1.448,1.448,0,0,1-1.447,1.45h0Zm0,0,0,0a1.449,1.449,0,0,1-1.448-1.45,2.9,2.9,0,0,0-2.9-2.89,1.45,1.45,0,0,1,0-2.9,5.8,5.8,0,0,1,5.79,5.79,1.448,1.448,0,0,1-1.447,1.45h0Zm0,0,36.191,27.49a1.439,1.439,0,0,1-1.447-1.44,2.9,2.9,0,0,0-2.9-2.9,1.45,1.45,0,0,1,0-2.9,5.8,5.8,0,0,1,5.791,5.8,1.44,1.44,0,0,1-1.448,1.44h0Zm0,0-4.33-4.34H782.4a1.45,1.45,0,0,1,0-2.9h63.71a1.45,1.45,0,0,1,0,2.9h0Zm0,0,4.33,10.14H778.052a1.45,1.45,0,0,1,0-2.9h72.383a1.45,1.45,0,0,1,0,2.9h0Zm0,0-76.725-23.16a1.449,1.449,0,0,1-1.448-1.45v-10.13a1.448,1.448,0,1,1,2.9,0v10.13a1.448,1.448,0,0,1-1.447,1.45h0Zm0,0,81.068,0a1.449,1.449,0,0,1-1.448-1.45l0-10.13a1.448,1.448,0,1,1,2.9,0l0,10.13a1.45,1.45,0,0,1-1.448,1.45h0Zm0,0-44.9-14.47H778.052a1.45,1.45,0,0,1,0-2.9h31.826a1.45,1.45,0,0,1,0,2.9h0Zm0,0,40.56,0H818.563a1.45,1.45,0,0,1,0-2.9h31.875a1.45,1.45,0,0,1,0,2.9h0Zm0,0-36.194,27.49a1.449,1.449,0,0,1-1.448-1.45v-23.15a1.448,1.448,0,1,1,2.895,0v23.15a1.448,1.448,0,0,1-1.447,1.45h0Zm0,0,28.946,23.17a1.44,1.44,0,0,1-1.448-1.44v-5.8a1.448,1.448,0,1,1,2.895,0v5.8a1.44,1.44,0,0,1-1.447,1.44h0Zm0,0,7.245,0H843.19a1.445,1.445,0,1,1,0-2.89h7.245a1.445,1.445,0,1,1,0,2.89h0Zm0,0-65.139,0a1.44,1.44,0,0,1-1.447-1.44v-5.8a1.448,1.448,0,1,1,2.895,0v5.8a1.44,1.44,0,0,1-1.448,1.44h0Zm0,0,0,0h-7.245a1.445,1.445,0,1,1,0-2.89H785.3a1.445,1.445,0,1,1,0,2.89h0Zm0,0" transform="translate(-749.688 -4941)"/>
  <rect id="Прямоугольник_11" data-name="Прямоугольник 11" class="cls-2" x="1" y="1" width="49.5" height="84"/>
  <path id="Фигура_13" data-name="Фигура 13" class="cls-3" d="M769.6,4955.04l1.184,0.92-10.5,13.5-1.184-.92Z" transform="translate(-749.688 -4941)"/>
  <path id="Фигура_13_копия" data-name="Фигура 13 копия" class="cls-3" d="M768.1,4949.04l1.184,0.92-10.5,13.5-1.184-.92Z" transform="translate(-749.688 -4941)"/>
</svg>
