<svg xmlns="http://www.w3.org/2000/svg" width="45" height="58" viewBox="0 0 45 58">
  <defs>
    <style>
      .cls-1 {
        fill: #4063a9;
        fill-rule: evenodd;
      }
    </style>
  </defs>
  <path id="icon11.svg" class="cls-1" d="M1116.45,5837.19l-0.77-.77-10.1-10.1-0.77-.77a1.885,1.885,0,0,0-1.33-.55h-29.02c-1.18,0-2.46.92-2.46,2.93V5881a2.289,2.289,0,0,0,1.84,1.91c0.05,0.01.1,0.03,0.15,0.04a2.416,2.416,0,0,0,.47.05h40.08a2.416,2.416,0,0,0,.47-0.05c0.05-.01.1-0.03,0.15-0.04A2.289,2.289,0,0,0,1117,5881v-42.02A2.281,2.281,0,0,0,1116.45,5837.19Zm-3.02-.19H1105v-8.44Zm-38.97,44a0.734,0.734,0,0,1-.2-0.05,0.458,0.458,0,0,1-.26-0.41V5866h41v14.54a0.45,0.45,0,0,1-.27.41,0.592,0.592,0,0,1-.19.05h-40.08Zm-0.46-17v-36.07c0-.22.03-0.93,0.46-0.93h28.6a1.32,1.32,0,0,0-.06.39V5839h11.61a1.756,1.756,0,0,0,.39-0.06V5864h-41Zm13.54,5.74a3.343,3.343,0,0,0-1.13-.61,3.978,3.978,0,0,0-1.27-.21h-2.9V5879h1.65v-3.64h1.21a4.2,4.2,0,0,0,1.45-.23,3.052,3.052,0,0,0,1.12-.66,3,3,0,0,0,.73-1.04,3.661,3.661,0,0,0,.26-1.39,2.844,2.844,0,0,0-.31-1.31A3.521,3.521,0,0,0,1087.54,5869.74Zm-0.62,3.33a1.536,1.536,0,0,1-.4.65,1.41,1.41,0,0,1-.54.34,1.974,1.974,0,0,1-.59.1h-1.51v-3.99h1.23a2.155,2.155,0,0,1,1.02.2,1.6,1.6,0,0,1,.59.49,1.531,1.531,0,0,1,.28.61,2.587,2.587,0,0,1,.07.57A3.07,3.07,0,0,1,1086.92,5873.07Zm10.53-2.67a4.37,4.37,0,0,0-1.6-1.07,5.688,5.688,0,0,0-2.23-.41h-3.04V5879h3.82c0.12,0,.32-0.02.59-0.05a3.7,3.7,0,0,0,.87-0.22,4.247,4.247,0,0,0,.99-0.51,3.439,3.439,0,0,0,.92-0.94,5.141,5.141,0,0,0,.68-1.47,7.359,7.359,0,0,0,.27-2.13,5.072,5.072,0,0,0-.32-1.76A4.328,4.328,0,0,0,1097.45,5870.4Zm-1.19,6.33a2.728,2.728,0,0,1-2.41,1.07h-1.63v-7.63h0.96a5.189,5.189,0,0,1,1.92.3,3.084,3.084,0,0,1,1.16.81,2.755,2.755,0,0,1,.59,1.12,5.194,5.194,0,0,1,.15,1.24A5.423,5.423,0,0,1,1096.26,5876.73Zm4.84,2.27h1.67v-4.54h4.21v-1.12h-4.21v-3.17h4.63v-1.25h-6.3V5879Zm2.83-31.04a19.188,19.188,0,0,0-3.36.36,32.047,32.047,0,0,1-5.09-7.56c1.34-5.63.67-6.43,0.37-6.81a2.119,2.119,0,0,0-1.26-1.04,4.639,4.639,0,0,0-1.01.17,1.909,1.909,0,0,0-1.14,1.21c-0.7,1.66.27,4.47,1.26,6.65a67.425,67.425,0,0,1-3.78,10.75c-3.79,1.73-5.81,3.44-5.99,5.06a2.43,2.43,0,0,0,1.12,2.25,1.605,1.605,0,0,0,.96.32h0c0.88,0,1.76-.67,2.79-2.11a28.555,28.555,0,0,0,2.38-4.25,47.753,47.753,0,0,1,8.83-2.82c1.58,1.52,2.99,2.29,4.21,2.29a2.69,2.69,0,0,0,2.22-1.19,2.025,2.025,0,0,0,.39-2.16C1106.44,5848.33,1105.49,5847.96,1103.93,5847.96Zm-17.89,9.67a0.76,0.76,0,0,1-.44-0.69c0.07-.55.94-1.54,3.07-2.74C1087.05,5857.19,1086.18,5857.59,1086.04,5857.63Zm8.2-22.92c0.04-.01,1.04,1.1.09,3.22A2.4,2.4,0,0,1,1094.24,5834.71Zm-2.07,16.03a70.969,70.969,0,0,0,2.67-7.57,34.733,34.733,0,0,0,3.82,5.55A50.076,50.076,0,0,0,1092.17,5850.74Zm12.9-.48a1.515,1.515,0,0,1-1.21.44c-0.53,0-.73-0.32-1.55-0.94a13.726,13.726,0,0,1,1.81-.11,2.093,2.093,0,0,1,1.18.19A1.38,1.38,0,0,1,1105.07,5850.26Z" transform="translate(-1072 -5825)"/>
</svg>
