<svg xmlns="http://www.w3.org/2000/svg" width="102.19" height="86.19" viewBox="0 0 102.19 86.19">
  <defs>
    <style>
      .cls-1 {
        fill: #4063aa;
        fill-rule: evenodd;
      }
    </style>
  </defs>
  <path id="icon6.svg" class="cls-1" d="M1085.36,4963.5a6.02,6.02,0,1,0-6.03-6.02A6.035,6.035,0,0,0,1085.36,4963.5Zm0-9.05a3.03,3.03,0,1,1-3.03,3.03A3.034,3.034,0,0,1,1085.36,4954.45Zm-12.71,23.07a7.27,7.27,0,1,0-7.27-7.27A7.279,7.279,0,0,0,1072.65,4977.52Zm0-11.55a4.275,4.275,0,1,1-4.28,4.28A4.287,4.287,0,0,1,1072.65,4965.97Zm12.55,27.41a7.27,7.27,0,1,0,7.28,7.27A7.283,7.283,0,0,0,1085.2,4993.38Zm0,11.55a4.275,4.275,0,1,1,4.28-4.28A4.285,4.285,0,0,1,1085.2,5004.93Zm-13.96-24.03a7.34,7.34,0,1,0,7.35,7.34A7.353,7.353,0,0,0,1071.24,4980.9Zm0,11.69a4.35,4.35,0,1,1,4.35-4.35A4.362,4.362,0,0,1,1071.24,4992.59Zm83.83-31.27c-2.96-2.95-7.06-.82-8.82.71L1129.17,4977c-1.03-6.62-4.38-8.12-7.18-8.12-3.27,0-6.46,2.15-7.37,2.82l-6.14,4.6a7.15,7.15,0,0,1-8.58-11.44l6.14-4.6c8.86-6.79,6.26-15.83-9.88-17.76a37.52,37.52,0,1,0-7.79,74.63,14.922,14.922,0,0,0,.64,9.38,1.492,1.492,0,0,0,.8.8c9.14,3.82,20.84-2.81,20.13-12.06,0.45-.07-0.16.27,8.89-5.85a4.071,4.071,0,0,0,5.45-5.03l21.23-24.17a1.5,1.5,0,0,0-2.25-1.98l-20.87,23.77-8.04-8.02c0.67-.58,32.3-28.31,33.87-29.68,0.03-.03,3.02-2.56,4.73-0.85s-0.83,4.7-.85,4.72l-5.63,6.42a1.491,1.491,0,0,0,.13,2.11,1.513,1.513,0,0,0,2.12-.14l5.63-6.42C1155.89,4968.37,1158.02,4964.27,1155.07,4961.32Zm-50.43,60.23a12.752,12.752,0,0,1-13.1,3.23c-2.31-6.54,2.12-15.42,8.76-15.42a6.7,6.7,0,0,1,4.76,1.92C1107.78,5014,1107.59,5018.6,1104.64,5021.55Zm5.22-9.7c-2.3-2.3-3.25-3.25-5.38-5.37l4.48-6.62,7.53,7.52Zm11.67-6.16a1.172,1.172,0,0,1-.53.85,0.8,0.8,0,0,1-1.11,0l-10.09-10.08a0.779,0.779,0,0,1,0-1.11l0.3-.3a0.817,0.817,0,0,1,1.11,0C1122.14,5005.98,1121.53,5005.22,1121.53,5005.69Zm-9.55-13.62a4.093,4.093,0,0,0-5.05,5.45c-5.95,8.78-5.77,8.39-5.85,8.87-5.24-.4-9.48,3.11-11.69,7.83a34.531,34.531,0,0,1,3.72-68.95c7.86,0.27,14.39,3.11,14.93,6.35,0.49,2.87-3.38,5.92-3.81,6.25l-6.13,4.6a10.142,10.142,0,0,0,12.18,16.22l6.12-4.59a10.888,10.888,0,0,1,5.59-2.23c2.61,0,4.1,2.53,4.44,7.53Z" transform="translate(-1054.34 -4942.22)"/>
</svg>
