<svg xmlns="http://www.w3.org/2000/svg" width="18.438" height="18.44" viewBox="0 0 18.438 18.44">
  <defs>
    <style>
      .cls-1 {
        fill: #4063a9;
        fill-rule: evenodd;
      }
    </style>
  </defs>
  <path id="icon8.svg" class="cls-1" d="M400.074,5259.08a0.71,0.71,0,0,1,0,1.01l-4.83,4.83a0.723,0.723,0,0,1-1.019,0l-2.3-2.3a0.71,0.71,0,0,1,0-1.01,0.722,0.722,0,0,1,1.018,0l1.79,1.79,4.322-4.32a0.7,0.7,0,0,1,1.018,0h0Zm5.142,2.92a9.216,9.216,0,1,1-9.216-9.22,9.217,9.217,0,0,1,9.216,9.22h0Zm-1.44,0a7.776,7.776,0,1,0-7.776,7.78,7.774,7.774,0,0,0,7.776-7.78h0Zm0,0" transform="translate(-386.781 -5252.78)"/>
</svg>
