<svg xmlns="http://www.w3.org/2000/svg" width="46.531" height="58.16" viewBox="0 0 46.531 58.16">
  <defs>
    <style>
      .cls-1 {
        fill: #4063a9;
        fill-rule: evenodd;
      }
    </style>
  </defs>
  <path id="icon9.svg" class="cls-1" d="M523.609,5824.28a0.973,0.973,0,0,0-.685-0.28H493.785c-3.745,0-4.781,1.04-4.785,4.78v48.59c0,3.75,1.04,4.78,4.785,4.79H530.74c3.745-.01,4.78-1.04,4.784-4.79V5836.6a0.948,0.948,0,0,0-.284-0.68Zm0.284,3.03,8.322,8.32H526.74c-2.676,0-2.844-.17-2.847-2.85v-5.47Zm-30.108-1.37h8.785v1.94h-1.939a0.97,0.97,0,0,0,0,1.94h1.939v1.93h-1.939a0.97,0.97,0,0,0,0,1.94h1.939v1.94h-1.939a0.97,0.97,0,0,0,0,1.94h1.939v1.94h-1.939a0.97,0.97,0,0,0,0,1.94h1.939v1.93h-1.939a0.97,0.97,0,0,0,0,1.94h1.939v1.94h-1.939a0.97,0.97,0,0,0,0,1.94h1.939v1.94a0.968,0.968,0,0,0-.941.73l-0.715,2.87a2.907,2.907,0,1,0,5.25,0l-0.716-2.87a0.967,0.967,0,0,0-.94-0.73v-1.94h1.939a0.97,0.97,0,0,0,0-1.94h-1.939v-1.94h1.939a0.97,0.97,0,0,0,0-1.94h-1.939v-1.93h1.939a0.97,0.97,0,0,0,0-1.94h-1.939v-1.94h1.939a0.97,0.97,0,0,0,0-1.94h-1.939v-1.94h1.939a0.97,0.97,0,0,0,0-1.94h-1.939v-1.93h1.939a0.97,0.97,0,0,0,0-1.94h-1.939v-1.94h17.447v6.84c0,3.75,1.039,4.78,4.785,4.79h6.846v27.14H490.938v-35.93c0-2.67.171-2.84,2.847-2.84h0Zm10.723,30.05a0.969,0.969,0,1,1-1.825-.46,0.913,0.913,0,0,0,.085-0.22l0.558-2.23h0.425l0.558,2.23a0.913,0.913,0,0,0,.085.22,0.967,0.967,0,0,1,.114.46h0Zm26.232,24.23H493.785c-2.676-.01-2.843-0.17-2.847-2.85v-10.72h42.648v10.72c0,2.68-.171,2.84-2.846,2.85h0Zm0,0-16.539-9.7a0.965,0.965,0,1,0,0-1.93h-3.877a0.965,0.965,0,1,0,0,1.93h0.969v5.82h-0.969a0.97,0.97,0,1,0,0,1.94H514.2a0.97,0.97,0,0,0,0-1.94h-0.97v-5.82h0.97Zm0,0,5.815-1.93h-1.938a0.966,0.966,0,0,0-.97.96v7.76a0.97,0.97,0,1,0,1.939,0v-2.91h0.969a2.905,2.905,0,1,0,0-5.81h0Zm0,3.87h-0.969v-1.94h0.969a0.97,0.97,0,0,1,0,1.94h0Zm0,0-13.569,3.88h-2.309l3.176-6.35a0.969,0.969,0,0,0-.867-1.4H502.57a0.965,0.965,0,1,0,0,1.93h2.309l-3.176,6.36a0.964,0.964,0,0,0,.042.94,0.984,0.984,0,0,0,.825.46h3.877a0.97,0.97,0,0,0,0-1.94h0Zm0,0" transform="translate(-489 -5824)"/>
</svg>
