<svg xmlns="http://www.w3.org/2000/svg" width="32" height="41.62" viewBox="0 0 32 41.62">
  <defs>
    <style>
      .cls-1 {
        fill: #e31a52;
        fill-rule: evenodd;
      }
    </style>
  </defs>
  <path id="icon2.svg" class="cls-1" d="M1089,1313.2h-24a4.012,4.012,0,0,0-4,4V1346a3.774,3.774,0,0,0,1.64,3,1.732,1.732,0,0,0-.04.2v2.8a2.783,2.783,0,0,0,2.8,2.8h0.8a2.783,2.783,0,0,0,2.8-2.8v-2h16v2a2.783,2.783,0,0,0,2.8,2.8h0.8a2.783,2.783,0,0,0,2.8-2.8v-2.8a4,4,0,0,0,1.6-3.2v-28.8A4.012,4.012,0,0,0,1089,1313.2Zm-21.6,38.8a1.179,1.179,0,0,1-1.2,1.2h-0.8a1.179,1.179,0,0,1-1.2-1.2v-2.2a4.189,4.189,0,0,0,1.2.2h2v2Zm22.4,0a1.179,1.179,0,0,1-1.2,1.2h-0.8a1.179,1.179,0,0,1-1.2-1.2v-2h2.4a4.924,4.924,0,0,0,.8-0.08V1352Zm1.6-6a2.407,2.407,0,0,1-2.4,2.4h-23.6c-1.28,0-2.8-1.08-2.8-2.4v-7.2h28.8v7.2Zm0-8.8h-28.8v-16h28.8v16Zm0-17.6h-28.8v-2.4a2.407,2.407,0,0,1,2.4-2.4h24a2.407,2.407,0,0,1,2.4,2.4v2.4Zm-16-3.2h-5.2a0.8,0.8,0,0,0,0,1.6h5.2A0.8,0.8,0,1,0,1075.4,1316.4Zm4.8,0H1079a0.8,0.8,0,1,0,0,1.6h1.2A0.8,0.8,0,0,0,1080.2,1316.4Zm-13.2,29.2a2.4,2.4,0,1,0-2.4-2.4A2.407,2.407,0,0,0,1067,1345.6Zm0-3.2a0.8,0.8,0,1,1-.8.8A0.8,0.8,0,0,1,1067,1342.4Zm20,3.2a2.4,2.4,0,1,0-2.4-2.4A2.407,2.407,0,0,0,1087,1345.6Zm0-3.2a0.8,0.8,0,1,1-.8.8A0.8,0.8,0,0,1,1087,1342.4Z" transform="translate(-1061 -1313.19)"/>
</svg>
