<svg xmlns="http://www.w3.org/2000/svg" width="48" height="48" viewBox="0 0 48 48">
  <defs>
    <style>
      .cls-1 {
        fill: #e31a52;
        fill-rule: evenodd;
      }
    </style>
  </defs>
  <path id="icon3.svg" class="cls-1" d="M1421,1327.77h-2.42a17.6,17.6,0,0,0-35.16,0H1381a4.014,4.014,0,0,0-4,4.01v6.4a4.014,4.014,0,0,0,4,4.01h3.2a2.4,2.4,0,0,0,2.4-2.41v-9.6a2.41,2.41,0,0,0-1.57-2.25,15.982,15.982,0,0,1,31.94,0,2.41,2.41,0,0,0-1.57,2.25v9.6a2.393,2.393,0,0,0,1.6,2.26v2.55a10.407,10.407,0,0,1-9.72,10.37,3.219,3.219,0,0,0-3.08-2.37h-6.4a3.205,3.205,0,0,0,0,6.41h6.4a3.208,3.208,0,0,0,3.1-2.44,12.005,12.005,0,0,0,11.3-11.97v-2.4h2.4a4.014,4.014,0,0,0,4-4.01v-6.4a4.014,4.014,0,0,0-4-4.01h0Zm-39.2,12.81H1381a2.394,2.394,0,0,1-2.4-2.4v-6.4a2.394,2.394,0,0,1,2.4-2.4h0.8v11.2Zm3.2-.8a0.8,0.8,0,0,1-.8.8h-0.8v-11.2h0.8a0.8,0.8,0,0,1,.8.8v9.6Zm19.2,17.62h-6.4a1.6,1.6,0,1,1,0-3.2h6.4a1.6,1.6,0,0,1,0,3.2h0Zm14.4-16.82h-0.8a0.8,0.8,0,0,1-.8-0.8v-9.6a0.8,0.8,0,0,1,.8-0.8h0.8v11.2Zm4.8-2.4a2.394,2.394,0,0,1-2.4,2.4h-0.8v-11.2h0.8a2.394,2.394,0,0,1,2.4,2.4v6.4Zm0,0" transform="translate(-1377 -1311)"/>
</svg>
