<svg xmlns="http://www.w3.org/2000/svg" width="91.812" height="87.47" viewBox="0 0 91.812 87.47">
  <defs>
    <style>
      .cls-1 {
        fill: #4063a9;
        fill-rule: evenodd;
      }
    </style>
  </defs>
  <path id="icon4.svg" class="cls-1" d="M535.276,4946.39a26.921,26.921,0,0,0-18.681,7.46,26.923,26.923,0,0,0-18.681-7.46,27.2,27.2,0,0,0-7.624,53.31,27.211,27.211,0,1,0,52.61,0,27.2,27.2,0,0,0-7.624-53.31h0Zm19.139,42.53a24.712,24.712,0,0,1-13.5,8.53,38.063,38.063,0,0,1-4.474.65,1.346,1.346,0,0,0,.065,2.69,0.152,0.152,0,0,0,.066-0.01,25.87,25.87,0,0,0,3.028-.31l0.68-.14a24.519,24.519,0,1,1-47.032-1.16,1.363,1.363,0,0,0-.109-1.08,1.336,1.336,0,0,0-.863-0.64,24.712,24.712,0,0,1-13.5-8.53,24.214,24.214,0,0,1-5.384-15.32,24.549,24.549,0,0,1,24.522-24.52,24.289,24.289,0,0,1,16.807,6.69c-0.53.62-1.037,1.25-1.508,1.91a1.34,1.34,0,0,0,1.088,2.13,1.332,1.332,0,0,0,1.092-.56,24.518,24.518,0,1,1,39.022,29.67h0Zm0,0-36.847-32.25c-0.085.09,0.065-.07,0,0h0Zm0,0-21.222,33.83a1.332,1.332,0,0,0-1.876.31,27.168,27.168,0,0,0-1.638,2.57,1.344,1.344,0,0,0,.518,1.83,1.3,1.3,0,0,0,.655.17,1.327,1.327,0,0,0,1.175-.69,26.571,26.571,0,0,1,1.475-2.32,1.337,1.337,0,0,0-.309-1.87h0Zm0,0,41.59-.73a1.345,1.345,0,1,0-2.109,1.67,24.459,24.459,0,0,1,1.583,2.25,1.338,1.338,0,0,0,1.142.63,1.312,1.312,0,0,0,.71-0.2,1.341,1.341,0,0,0,.43-1.85,28.576,28.576,0,0,0-1.756-2.5h0Zm0,0-35.719-6.22a30.468,30.468,0,0,0-2.5,1.75,1.354,1.354,0,0,0,.835,2.41,1.376,1.376,0,0,0,.834-0.29,25.6,25.6,0,0,1,2.248-1.59,1.344,1.344,0,1,0-1.422-2.28h0Zm0,0,30.216,0.97a28.78,28.78,0,0,0-2.577-1.64,1.345,1.345,0,0,0-1.311,2.35,24.108,24.108,0,0,1,2.322,1.48,1.336,1.336,0,0,0,.782.25,1.346,1.346,0,0,0,.784-2.44h0Zm0,0-23.263-4.05a1.346,1.346,0,0,0,.367,2.64,1.559,1.559,0,0,0,.368-0.05,22.514,22.514,0,0,1,2.682-.6,1.348,1.348,0,0,0-.438-2.66,27.571,27.571,0,0,0-2.979.67h0Zm0,0-7.964,18.79a1.351,1.351,0,0,0-1.423-1.24c-0.991.06-2.158,0.11-2.751,0.09a1.343,1.343,0,0,0-1.386,1.46,1.369,1.369,0,0,0,1.336,1.23c0.3,0.01.6,0.01,0.9,0.01,0.406,0,1.276-.05,2.066-0.1a1.346,1.346,0,0,0,1.254-1.45h0Zm0,0,19.68-34.26a1.351,1.351,0,0,0,1.26.88,1.3,1.3,0,0,0,.47-0.09,1.342,1.342,0,0,0,.789-1.73,26.459,26.459,0,0,0-1.228-2.79,1.345,1.345,0,1,0-2.4,1.22,24.352,24.352,0,0,1,1.106,2.51h0Zm0,0,2.251,15.3a0.565,0.565,0,0,0-.1-0.05,1.312,1.312,0,0,0-.28-0.1,26.931,26.931,0,0,0-2.966-.52H519.75a1.344,1.344,0,1,0-.306,2.67h0.03c0.434,0.05.868,0.12,1.3,0.19-0.173.44-.358,0.88-0.556,1.31a1.352,1.352,0,0,0,.662,1.79,1.39,1.39,0,0,0,.56.12,1.339,1.339,0,0,0,1.223-.79,28.335,28.335,0,0,0,1.114-2.84,1.535,1.535,0,0,0-.64-1.78h0Zm0,0,1.906-8.81a1.345,1.345,0,1,0-2.681.21l0,0.05c0.048,0.62.072,1.26,0.072,1.88q0,0.435-.015.87a1.347,1.347,0,0,0,1.3,1.39h0.048a1.344,1.344,0,0,0,1.343-1.3c0.012-.32.017-0.64,0.017-0.96,0-.69-0.026-1.39-0.08-2.09Zm0,0-16.047,24a25.367,25.367,0,0,1-2.518,1.1,1.342,1.342,0,0,0,.47,2.6,1.281,1.281,0,0,0,.468-0.08,28.28,28.28,0,0,0,2.8-1.23,1.341,1.341,0,1,0-1.216-2.39h0Zm0,0,20.62,1.98a24.331,24.331,0,0,1-2.636-.79,1.345,1.345,0,0,0-.912,2.53,25.044,25.044,0,0,0,2.926.87,1.114,1.114,0,0,0,.312.04,1.343,1.343,0,0,0,.31-2.65h0Zm0,0-8.7-3.99c-0.67-.48-1.773-1.39-2.48-2.02,0.041-.04.082-0.09,0.122-0.13a1.344,1.344,0,1,0-2.041-1.75,24.888,24.888,0,0,1-1.9,1.98,1.344,1.344,0,0,0-.068,1.9,1.344,1.344,0,0,0,1.9.07l0.126-.12c0.77,0.68,2,1.7,2.769,2.25a1.345,1.345,0,1,0,1.575-2.18h0Zm0,0-6.518-7a24.33,24.33,0,0,1-1.31-2.42,1.345,1.345,0,0,0-2.432,1.15,26.224,26.224,0,0,0,1.454,2.68,1.348,1.348,0,0,0,1.145.64,1.306,1.306,0,0,0,.706-0.2,1.345,1.345,0,0,0,.437-1.85h0Zm0,0-5.987-8.54a1.344,1.344,0,0,0,1.326,1.13,1.541,1.541,0,0,0,.214-0.01,1.35,1.35,0,0,0,1.117-1.54l0-.03a24.909,24.909,0,0,1-.286-2.71,1.344,1.344,0,1,0-2.685.13,27.626,27.626,0,0,0,.317,3.02v0.01Zm0,0,1.376-8.99a1.688,1.688,0,0,0,.311.04,1.348,1.348,0,0,0,1.308-1.04,24.066,24.066,0,0,1,.784-2.63,1.346,1.346,0,0,0-2.53-.92,27.344,27.344,0,0,0-.871,2.93,1.347,1.347,0,0,0,1,1.62h0Zm0,0" transform="translate(-470.688 -4946.41)"/>
</svg>
