<svg xmlns="http://www.w3.org/2000/svg" width="91.82" height="75.94" viewBox="0 0 91.82 75.94">
  <defs>
    <style>
      .cls-1 {
        fill: #4063a9;
        fill-rule: evenodd;
      }
    </style>
  </defs>
  <path id="icon7.svg" class="cls-1" d="M1441.43,4964.09l-14.12-15.21a7.454,7.454,0,0,0-5.43-2.36h-48.76a7.454,7.454,0,0,0-5.43,2.36l-14.12,15.21a7.419,7.419,0,0,0-.25,9.79l38.5,45.95a7.412,7.412,0,0,0,11.36,0l38.5-45.95A7.419,7.419,0,0,0,1441.43,4964.09Zm-2.07,1.91a4.648,4.648,0,0,1,.94,1.52h-21.23l5.98-16.92,0.2,0.2Zm-16.86-16.63-5.99,16.96-15.79-17h21.16C1422.09,4949.33,1422.29,4949.35,1422.5,4949.37Zm-8.73,18.15h-32.54l16.27-17.53Zm-19.49-18.19-15.79,17-5.99-16.96c0.21-.02.41-0.04,0.62-0.04h21.16Zm-24.53,1.47,0.2-.2,5.98,16.92H1354.7a4.648,4.648,0,0,1,.94-1.52Zm-14.27,21.28a4.665,4.665,0,0,1-.91-1.75h22.35l16.67,47.23Zm41.83,47.58-17.41-49.33h35.2l-17.41,49.33A1.81,1.81,0,0,1,1397.31,5019.66Zm4.1-2.1,16.67-47.23h22.35a4.665,4.665,0,0,1-.91,1.75Zm1.27-24.81a1.5,1.5,0,0,0,.47.08,1.393,1.393,0,0,0,1.32-.94l5.83-16.5a1.411,1.411,0,0,0-2.66-.94l-5.82,16.5A1.412,1.412,0,0,0,1402.68,4992.75Zm-6.21-34.52,6,6.46a1.4,1.4,0,0,0,1.03.45,1.424,1.424,0,0,0,.96-0.38,1.407,1.407,0,0,0,.07-1.99l-6-6.46A1.408,1.408,0,1,0,1396.47,4958.23Z" transform="translate(-1351.59 -4946.53)"/>
</svg>
