<svg width="90" height="90" viewBox="0 0 90 90" fill="none" xmlns="http://www.w3.org/2000/svg">
<path d="M84 0V31.479C83.9921 38.943 79.2864 45.5938 72.2505 48.0855C64.0162 51.0017 58.5092 58.7856 58.5 67.521V81C58.5 84.3137 55.8137 87 52.5 87H37.5C34.1863 87 31.5 84.3137 31.5 81V67.521C31.4908 58.7856 25.9837 51.0017 17.7495 48.0855C10.7136 45.5938 6.00787 38.943 6 31.479V0H3V31.479C3.00919 40.2144 8.51625 47.9983 16.7505 50.9145C23.7864 53.4062 28.4921 60.057 28.5 67.521V81C28.5049 85.9686 32.5314 89.9951 37.5 90H52.5C57.4686 89.9951 61.4951 85.9686 61.5 81V67.521C61.5079 60.057 66.2136 53.4062 73.2495 50.9145C81.4837 47.9983 86.9908 40.2144 87 31.479V0H84Z" fill="#4067A5"/>
<path d="M46.5 9H43.5V12H46.5V9Z" fill="#4067A5"/>
<path d="M46.5 21H43.5V24H46.5V21Z" fill="#4067A5"/>
<path d="M46.5 27H43.5V30H46.5V27Z" fill="#4067A5"/>
<path d="M46.5 15H43.5V18H46.5V15Z" fill="#4067A5"/>
<path d="M49.9395 28.9395L45.879 33H44.121L40.0605 28.9395L37.9395 31.0605L43.9395 37.0605C44.2207 37.3417 44.6021 37.5 45 37.5C45.3978 37.5 45.7792 37.3417 46.0605 37.0605L52.0605 31.0605L49.9395 28.9395Z" fill="#4067A5"/>
<path d="M15.3721 32.3293L12.5581 33.3673C12.9331 34.384 13.3915 35.368 13.9291 36.3088L16.5331 34.8178C16.0777 34.0219 15.6894 33.1896 15.3721 32.3293Z" fill="#4067A5"/>
<path d="M38.7403 58.3274L35.7793 58.8149C35.9257 59.7023 35.9994 60.6005 35.9998 61.4999H38.9998C38.9992 60.4371 38.9124 59.3761 38.7403 58.3274Z" fill="#4067A5"/>
<path d="M32.646 47.1208L30.6255 49.3348C31.3035 49.9521 31.9286 50.625 32.4945 51.3463L34.8555 49.4998C34.1859 48.6471 33.447 47.8513 32.646 47.1208Z" fill="#4067A5"/>
<path d="M13.777 14.9293L10.7803 15.0703L10.9213 18.067L13.918 17.926L13.777 14.9293Z" fill="#4067A5"/>
<path d="M22.7458 40.9784C22.5658 40.8779 22.3918 40.7759 22.2178 40.6694L20.6533 43.2299C20.8534 43.3529 21.0598 43.4739 21.2728 43.5929L23.3098 44.7389L24.7798 42.1244L22.7458 40.9784Z" fill="#4067A5"/>
<path d="M13.5026 8.92884L10.5059 9.07104L10.6481 12.0677L13.6448 11.9255L13.5026 8.92884Z" fill="#4067A5"/>
<path d="M14.0616 20.9259L11.0649 21.0669L11.2059 24.0636L14.2026 23.9226L14.0616 20.9259Z" fill="#4067A5"/>
<path d="M18.0929 37.0771L15.7739 38.9821C16.4628 39.819 17.2194 40.5976 18.0359 41.3101L20.0054 39.0481C19.3143 38.4455 18.6746 37.7863 18.0929 37.0771Z" fill="#4067A5"/>
<path d="M36.6374 52.209L34.002 53.6415C34.4405 54.4472 34.8106 55.2881 35.109 56.1555L37.9454 55.1805C37.5931 54.1552 37.1557 53.1611 36.6374 52.209Z" fill="#4067A5"/>
<path d="M29.0838 44.5455L27.3948 43.5945L25.9248 46.2105L27.6138 47.16C27.9003 47.319 28.1763 47.487 28.4478 47.661L30.0678 45.138C29.7483 44.931 29.4198 44.7345 29.0838 44.5455Z" fill="#4067A5"/>
<path d="M14.3983 27.6869L14.3623 26.9084L11.3623 27.0494L11.3998 27.8504C11.4508 28.6518 11.5511 29.4493 11.6998 30.2384L14.6488 29.6834C14.5247 29.0236 14.4411 28.3569 14.3983 27.6869Z" fill="#4067A5"/>
<path d="M49.9395 66.4395L45 71.379L40.0605 66.4395L37.9395 68.5605L43.9395 74.5605C44.5252 75.146 45.4747 75.146 46.0605 74.5605L52.0605 68.5605L49.9395 66.4395Z" fill="#4067A5"/>
<path d="M75.9061 20.8959L75.7651 23.8926L78.7619 24.0336L78.9029 21.0369L75.9061 20.8959Z" fill="#4067A5"/>
<path d="M75.6434 26.9084L75.6089 27.6584C75.5664 28.3359 75.4822 29.0103 75.3569 29.6774L78.3059 30.2324C78.4556 29.4378 78.5562 28.6349 78.6074 27.8279L78.6434 27.0494L75.6434 26.9084Z" fill="#4067A5"/>
<path d="M76.1879 14.9071L76.0469 17.9038L79.0436 18.0448L79.1846 15.0481L76.1879 14.9071Z" fill="#4067A5"/>
<path d="M76.473 8.91077L76.332 11.9075L79.3287 12.0485L79.4697 9.05177L76.473 8.91077Z" fill="#4067A5"/>
<path d="M74.6278 32.3293C74.3105 33.1896 73.9222 34.0221 73.4668 34.8178L76.0708 36.3088C76.6084 35.368 77.0668 34.384 77.4418 33.3673L74.6278 32.3293Z" fill="#4067A5"/>
<path d="M57.354 47.1165C56.5528 47.8485 55.8139 48.6457 55.1445 49.5L57.5055 51.351C58.0712 50.628 58.6963 49.9537 59.3745 49.335L57.354 47.1165Z" fill="#4067A5"/>
<path d="M53.3622 52.209C52.844 53.1611 52.4065 54.1552 52.0542 55.1805L54.8907 56.1555C55.189 55.2881 55.5591 54.4472 55.9977 53.6415L53.3622 52.209Z" fill="#4067A5"/>
<path d="M67.7822 40.6694C67.6082 40.7759 67.4342 40.8779 67.2572 40.9784L65.2202 42.1244L66.6902 44.7389L68.7302 43.5929C68.9372 43.4744 69.1442 43.3529 69.3467 43.2299L67.7822 40.6694Z" fill="#4067A5"/>
<path d="M62.6056 43.5945L60.9166 44.5455C60.5806 44.7345 60.2521 44.931 59.9326 45.138L61.5526 47.661C61.8241 47.487 62.1001 47.319 62.3866 47.16L64.0756 46.2105L62.6056 43.5945Z" fill="#4067A5"/>
<path d="M51.2595 58.3274C51.0874 59.3761 51.0006 60.4371 51 61.4999H54C54.0004 60.6005 54.0741 59.7023 54.2205 58.8149L51.2595 58.3274Z" fill="#4067A5"/>
<path d="M71.9071 37.0771C71.3255 37.7863 70.6858 38.4455 69.9946 39.0481L71.9641 41.3101C72.7807 40.5976 73.5373 39.819 74.2261 38.9821L71.9071 37.0771Z" fill="#4067A5"/>
<path d="M49.9395 73.9395L45 78.879L40.0605 73.9395L37.9395 76.0605L43.9395 82.0605C44.5252 82.646 45.4747 82.646 46.0605 82.0605L52.0605 76.0605L49.9395 73.9395Z" fill="#4067A5"/>
</svg>
