<svg width="20" height="20" viewBox="0 0 20 20" fill="none" xmlns="http://www.w3.org/2000/svg">
<path d="M17.1429 6.42871H13.5715C13.177 6.42871 12.8572 6.74851 12.8572 7.14301C12.8572 7.53751 13.177 7.85731 13.5715 7.85731H17.1429C17.5374 7.85731 17.8572 8.1771 17.8572 8.5716V17.8573C17.8572 18.2518 17.5374 18.5716 17.1429 18.5716H2.85721C2.46271 18.5716 2.14291 18.2518 2.14291 17.8573V8.57156C2.14291 8.17706 2.46271 7.85726 2.85721 7.85726H6.42862C6.82313 7.85726 7.14292 7.53747 7.14292 7.14297C7.14292 6.74846 6.82313 6.42871 6.42862 6.42871H2.85721C1.67374 6.42871 0.714355 7.3881 0.714355 8.57156V17.8573C0.714355 19.0407 1.67374 20.0001 2.85721 20.0001H17.1429C18.3264 20.0001 19.2858 19.0407 19.2858 17.8573V8.57156C19.2858 7.3881 18.3264 6.42871 17.1429 6.42871Z" fill="white"/>
<path d="M14.0599 10.2093C13.7831 9.94197 13.3443 9.94197 13.0675 10.2093L10.7139 12.5614V0.714299C10.7139 0.319796 10.3941 0 9.99961 0C9.60511 0 9.28531 0.319796 9.28531 0.714299V12.5614L6.93316 10.2093C6.6494 9.93523 6.19722 9.94306 5.92317 10.2268C5.65582 10.5036 5.65582 10.9425 5.92317 11.2193L9.49458 14.7907C9.77319 15.07 10.2254 15.0706 10.5047 14.7919C10.5051 14.7915 10.5056 14.7911 10.506 14.7907L14.0774 11.2193C14.3515 10.9355 14.3437 10.4833 14.0599 10.2093Z" fill="white"/>
</svg>
