<svg width="86" height="86" viewBox="0 0 86 86" fill="none" xmlns="http://www.w3.org/2000/svg">
<circle cx="43" cy="43" r="40" stroke="#77E88F" stroke-width="6"/>
<path d="M63.344 31.7059L62.001 30.3629C61.579 29.9406 61.0163 29.7083 60.4157 29.7083C59.815 29.7083 59.252 29.9406 58.83 30.3629L39.959 49.2336L28.1687 37.4429C27.7467 37.0213 27.1837 36.7886 26.583 36.7886C25.9827 36.7886 25.42 37.0213 24.9977 37.4429L23.6543 38.7856C23.232 39.2086 23 39.7719 23 40.3719C23 40.9723 23.232 41.5353 23.6543 41.9576L36.9663 55.2689C36.984 55.2939 37.0027 55.3173 37.0243 55.3386L38.3677 56.6596C38.7897 57.0803 39.3527 57.2906 39.958 57.2906H39.965C40.566 57.2906 41.129 57.0803 41.5503 56.6596L42.894 55.3269C42.9157 55.3056 42.934 55.2879 42.945 55.2699L63.3437 34.8733C64.2187 34.0003 64.2187 32.5799 63.344 31.7059Z" fill="#77E890"/>
</svg>
