<svg width="90" height="90" viewBox="0 0 90 90" fill="none" xmlns="http://www.w3.org/2000/svg">
<path d="M88.5 55.5C86.0147 55.5 84 53.4853 84 51C84 50.1716 83.3284 49.5 82.5 49.5C81.6716 49.5 81 50.1716 81 51C80.9921 52.9001 79.7916 54.5906 78 55.224V10.5C78 9.67163 77.3284 9 76.5 9H13.5C12.6716 9 12 9.67163 12 10.5V32.724C10.2084 32.0906 9.00788 30.4001 9 28.5C9 27.6716 8.32837 27 7.5 27C6.67163 27 6 27.6716 6 28.5C6 30.9853 3.98531 33 1.5 33C0.671625 33 0 33.6716 0 34.5C0 35.3284 0.671625 36 1.5 36C3.98531 36 6 38.0147 6 40.5C6 41.3284 6.67163 42 7.5 42C8.32837 42 9 41.3284 9 40.5C9.00788 38.5999 10.2084 36.9094 12 36.276V79.5C12 80.3284 12.6716 81 13.5 81H76.5C77.3284 81 78 80.3284 78 79.5V58.776C79.7916 59.4094 80.9921 61.0999 81 63C81 63.8284 81.6716 64.5 82.5 64.5C83.3284 64.5 84 63.8284 84 63C84 60.5147 86.0147 58.5 88.5 58.5C89.3284 58.5 90 57.8284 90 57C90 56.1716 89.3284 55.5 88.5 55.5ZM7.5 36C7.07325 35.4317 6.56831 34.9268 6 34.5C6.56831 34.0733 7.07325 33.5683 7.5 33C7.92675 33.5683 8.43169 34.0733 9 34.5C8.43169 34.9268 7.92675 35.4317 7.5 36ZM75 69V78H44.121L55.0605 67.0605C55.6361 66.4646 55.6196 65.5151 55.0238 64.9395C54.4425 64.3779 53.5207 64.3779 52.9395 64.9395L39.879 78H35.121L55.0605 58.0605C55.6361 57.4646 55.6196 56.5151 55.0238 55.9395C54.4425 55.3779 53.5207 55.3779 52.9395 55.9395L30.879 78H15V12H59.379L48.4395 22.9395C47.8436 23.5151 47.8271 24.4646 48.4028 25.0605C48.9784 25.6564 49.9279 25.6729 50.5238 25.0973C50.5363 25.0853 50.5485 25.0729 50.5605 25.0605L63.621 12H68.379L48.4395 31.9395C47.8436 32.5151 47.8271 33.4646 48.4028 34.0605C48.9784 34.6564 49.9279 34.6729 50.5238 34.0973C50.5363 34.0853 50.5485 34.0729 50.5605 34.0605L72.621 12H75V69ZM82.5 58.5C82.0732 57.9317 81.5683 57.4268 81 57C81.5683 56.5733 82.0732 56.0683 82.5 55.5C82.9268 56.0683 83.4317 56.5733 84 57C83.4317 57.4268 82.9268 57.9317 82.5 58.5Z" fill="#4067A5"/>
<path d="M73.5 67.5C71.0147 67.5 69 65.4853 69 63C69 62.1716 68.3284 61.5 67.5 61.5C66.6716 61.5 66 62.1716 66 63C66 65.4853 63.9853 67.5 61.5 67.5C60.6716 67.5 60 68.1716 60 69C60 69.8284 60.6716 70.5 61.5 70.5C63.9853 70.5 66 72.5147 66 75C66 75.8284 66.6716 76.5 67.5 76.5C68.3284 76.5 69 75.8284 69 75C69 72.5147 71.0147 70.5 73.5 70.5C74.3284 70.5 75 69.8284 75 69C75 68.1716 74.3284 67.5 73.5 67.5ZM67.5 70.5C67.0732 69.9317 66.5683 69.4268 66 69C66.5683 68.5733 67.0732 68.0683 67.5 67.5C67.9267 68.0683 68.4317 68.5733 69 69C68.4317 69.4268 67.9267 69.9317 67.5 70.5Z" fill="#4067A5"/>
<path d="M28.5 21C26.0147 21 24 18.9853 24 16.5C24 15.6716 23.3284 15 22.5 15C21.6716 15 21 15.6716 21 16.5C21 18.9853 18.9853 21 16.5 21C15.6716 21 15 21.6716 15 22.5C15 23.3284 15.6716 24 16.5 24C18.9853 24 21 26.0147 21 28.5C21 29.3284 21.6716 30 22.5 30C23.3284 30 24 29.3284 24 28.5C24 26.0147 26.0147 24 28.5 24C29.3284 24 30 23.3284 30 22.5C30 21.6716 29.3284 21 28.5 21ZM22.5 24C22.0732 23.4317 21.5683 22.9268 21 22.5C21.5683 22.0733 22.0732 21.5683 22.5 21C22.9267 21.5683 23.4317 22.0733 24 22.5C23.4317 22.9268 22.9267 23.4317 22.5 24Z" fill="#4067A5"/>
</svg>
