<svg width="90" height="90" viewBox="0 0 90 90" fill="none" xmlns="http://www.w3.org/2000/svg">
<g clip-path="url(#clip0)">
<path d="M52.8441 27.7359C52.6114 28.1115 52.487 28.5541 52.5001 29.0173C52.5265 29.9518 53.1072 30.7719 53.9797 31.1071L64.9877 35.3343C65.2564 35.4377 65.5364 35.489 65.8159 35.489C66.1347 35.489 66.453 35.422 66.7532 35.2884C67.3164 35.0378 67.7483 34.5829 67.969 34.0075L72.2127 22.957C72.5456 22.0901 72.3289 21.1137 71.6607 20.4694C71.3227 20.1433 70.9042 19.9357 70.4625 19.8572L65.107 9.19497C63.8216 6.63634 61.2445 5.04688 58.3815 5.04688H33.4282C30.6657 5.04688 28.131 6.55531 26.8132 8.98335L18.4872 24.3255C17.6134 25.9352 18.1982 27.9813 19.7906 28.8865L32.8276 36.2966C33.3546 36.5963 33.9288 36.7385 34.4956 36.7385C35.6749 36.7385 36.8224 36.123 37.4461 35.0267L41.405 28.0681C41.765 27.4354 41.5439 26.6305 40.911 26.2704C40.2782 25.9104 39.4734 26.1313 39.1132 26.7645L35.1544 33.7231C34.9497 34.0829 34.4902 34.2094 34.1302 34.0046L21.0932 26.5943C20.7403 26.3936 20.6106 25.9401 20.8043 25.5831L29.1304 10.2408C29.9865 8.66328 31.6333 7.68338 33.428 7.68338H41.0247L45.5762 15.4052L42.2352 21.2775C41.8752 21.9103 42.0963 22.7151 42.7293 23.0753C42.9349 23.1923 43.1588 23.2479 43.38 23.2479C43.8384 23.2479 44.2841 23.0083 44.527 22.5812L47.1197 18.0239L52.8441 27.7359ZM58.3815 7.68338C60.2416 7.68338 61.916 8.71601 62.751 10.3784L68.4935 21.8112C68.7046 22.2316 69.112 22.4921 69.5516 22.5325L65.6259 32.7555L55.5103 28.8708C55.6323 28.7339 55.7258 28.5717 55.7824 28.3931C55.896 28.0358 55.852 27.6472 55.6617 27.3243L44.0851 7.68338H58.3815Z" fill="#4067A5"/>
<path d="M39.1759 62.7474H31.1339C30.4059 62.7474 29.8156 63.3376 29.8156 64.0656C29.8156 64.7936 30.4059 65.3839 31.1339 65.3839H39.1759C39.59 65.3839 39.927 65.7208 39.927 66.1349V81.34C39.927 81.7541 39.59 82.091 39.1759 82.091H19.3123C17.5206 82.091 15.8752 81.1136 15.0182 79.5403L11.5413 73.157L16.1948 65.3839H24.8191C25.5471 65.3839 26.1374 64.7936 26.1374 64.0656C26.1374 63.3376 25.5471 62.7474 24.8191 62.7474H17.7732L23.5329 53.1266C23.9445 53.1305 24.3692 53.0253 24.7469 52.8055C25.5725 52.3251 26.0247 51.403 25.8989 50.4565L24.3683 38.9366C24.1969 37.6478 23.0094 36.7383 21.7205 36.91L10.1563 38.4465C9.25778 38.5659 8.52079 39.173 8.23306 40.0311C8.07786 40.4937 8.06907 40.9758 8.19369 41.421L1.34933 51.2856C-0.282842 53.6382 -0.445953 56.6616 0.923622 59.176L12.703 80.8016C14.0221 83.2233 16.5547 84.7277 19.3125 84.7277H39.1761C41.044 84.7277 42.5637 83.208 42.5637 81.3402V66.1351C42.5635 64.267 41.0438 62.7474 39.1759 62.7474ZM3.239 57.9148C2.34927 56.2812 2.45525 54.3169 3.51548 52.7884L10.8138 42.2691C11.0785 41.8875 11.1167 41.408 10.9439 41.0015L21.7914 39.5602L23.2186 50.3018C23.04 50.2602 22.8526 50.2558 22.6686 50.2913C22.3006 50.3625 21.9803 50.5869 21.7878 50.9084L10.0774 70.4695L3.239 57.9148Z" fill="#4067A5"/>
<path d="M88.667 50.4968L78.6836 36.0312C77.6883 34.5892 75.7198 34.1454 74.2024 35.0212L61.1922 42.529C60.3865 42.9939 59.8019 43.7799 59.5883 44.6853C59.3748 45.5906 59.5465 46.5549 60.0594 47.3309L71.064 63.9804H59.3002C59.0338 63.708 58.696 63.5036 58.3149 63.3969C57.5428 63.1807 56.7423 63.3907 56.1735 63.9597L47.5697 72.5635C47.1548 72.9784 46.9263 73.5302 46.9263 74.1171C46.9263 74.7039 47.1548 75.2557 47.5697 75.6707L56.2067 84.3075C56.6279 84.7286 57.1775 84.9536 57.7484 84.9536C57.9414 84.9536 58.1367 84.9279 58.3304 84.8754C58.7113 84.7722 59.0505 84.571 59.3192 84.3012H71.3102C74.1606 84.3012 76.7326 82.7221 78.0222 80.1801L89.1852 58.1773C90.4345 55.7132 90.2361 52.7704 88.667 50.4968ZM86.8334 56.984L79.3496 71.7351L79.2463 71.5788C78.8448 70.9714 78.0268 70.8044 77.4197 71.2058C76.8122 71.6073 76.6453 72.4251 77.0467 73.0324L77.977 74.4401L75.6703 78.9869C74.8324 80.6384 73.1616 81.6643 71.3095 81.6643H58.6082C58.2495 81.6643 57.918 81.8091 57.677 82.0494L49.7442 74.1167L57.6384 66.2227C57.88 66.4682 58.2151 66.6167 58.5785 66.6167H72.8062L73.5685 67.7703C73.9699 68.3777 74.7878 68.5445 75.395 68.1433C76.0025 67.7418 76.1695 66.924 75.768 66.3167L62.2586 45.8771C62.1028 45.6416 62.1264 45.4084 62.1542 45.2906C62.1819 45.1727 62.2651 44.9537 62.5097 44.8125L75.52 37.3048C75.8568 37.1106 76.2928 37.209 76.5136 37.5287L86.497 51.9943C87.5166 53.4715 87.6454 55.3835 86.8334 56.984Z" fill="#4067A5"/>
</g>
<defs>
<clipPath id="clip0">
<rect width="90" height="90" fill="white"/>
</clipPath>
</defs>
</svg>
