<svg width="90" height="90" viewBox="0 0 90 90" fill="none" xmlns="http://www.w3.org/2000/svg">
<g clip-path="url(#clip0)">
<path d="M49.4393 32.8053C49.5692 32.8538 49.7043 32.8764 49.8359 32.8764C50.3114 32.8764 50.7556 32.5828 50.9288 32.1108L61.0868 4.20275C61.3068 3.59916 60.9959 2.93322 60.3914 2.71326C59.793 2.49503 59.1219 2.80418 58.9019 3.40777L48.7457 31.3158C48.524 31.9194 48.8366 32.5862 49.4393 32.8053Z" fill="#4067A5"/>
<path d="M53.3423 35.0593C53.5605 35.242 53.8255 35.3312 54.0879 35.3312C54.4213 35.3312 54.7495 35.19 54.9781 34.9164L74.0687 12.1653C74.4818 11.6734 74.416 10.9399 73.925 10.5277C73.4322 10.1146 72.7005 10.1795 72.2874 10.6706L53.1985 33.4217C52.7872 33.9136 52.8504 34.6462 53.3423 35.0593Z" fill="#4067A5"/>
<path d="M56.2396 38.512C56.4544 38.8853 56.8449 39.0931 57.2468 39.0931C57.4451 39.0931 57.6434 39.0429 57.827 38.9372L83.5467 24.0873C84.1035 23.766 84.2923 23.0559 83.9719 22.5C83.6515 21.9431 82.9396 21.7535 82.3845 22.0748L56.6648 36.9247C56.1089 37.2451 55.9183 37.9561 56.2396 38.512Z" fill="#4067A5"/>
<path d="M57.7804 42.7477C57.8799 43.3115 58.371 43.7081 58.9235 43.7081C58.991 43.7081 59.0577 43.702 59.1261 43.6899L88.373 38.5321C89.0043 38.4212 89.4269 37.8177 89.316 37.1855C89.2034 36.5542 88.5955 36.1333 87.9685 36.2433L58.7225 41.4011C58.0921 41.5128 57.6695 42.1155 57.7804 42.7477Z" fill="#4067A5"/>
<path d="M88.3747 51.4672L59.1278 46.3119C58.4939 46.202 57.893 46.6211 57.7804 47.2541C57.6695 47.8854 58.0913 48.489 58.7234 48.6007L87.9703 53.7559C88.0387 53.7689 88.1054 53.7741 88.1729 53.7741C88.7272 53.7741 89.2164 53.3775 89.316 52.8138C89.4286 52.1816 89.006 51.5789 88.3747 51.4672Z" fill="#4067A5"/>
<path d="M83.5471 65.9126L57.8274 51.0644C57.2723 50.7431 56.5613 50.9345 56.24 51.4896C55.9196 52.0455 56.1101 52.7557 56.6652 53.0769L82.385 67.9251C82.5677 68.0316 82.766 68.081 82.9652 68.081C83.3661 68.081 83.7567 67.8731 83.9723 67.5008C84.2927 66.9439 84.1031 66.2338 83.5471 65.9126Z" fill="#4067A5"/>
<path d="M54.9789 55.0844C54.5667 54.5943 53.8341 54.5285 53.3414 54.9424C52.8504 55.3546 52.7854 56.0872 53.1976 56.58L72.2882 79.3294C72.5186 79.6031 72.8477 79.7442 73.1793 79.7442C73.4435 79.7442 73.7076 79.655 73.9241 79.4732C74.416 79.0601 74.4818 78.3266 74.0678 77.8347L54.9789 55.0844Z" fill="#4067A5"/>
<path d="M50.9287 57.8902C50.7087 57.2875 50.0402 56.9766 49.4392 57.1957C48.8356 57.4156 48.523 58.0816 48.7447 58.6852L58.9018 86.5924C59.0733 87.0652 59.5192 87.3579 59.9938 87.3579C60.1263 87.3579 60.2614 87.3354 60.3913 87.2878C60.9949 87.0678 61.3075 86.4019 61.0867 85.7974L50.9287 57.8902Z" fill="#4067A5"/>
<path d="M45.0005 57.9768C44.3588 57.9768 43.8384 58.4981 43.8384 59.1398V88.8379C43.8384 89.4787 44.3597 90 45.0014 90C45.6431 90 46.1636 89.4796 46.1636 88.8379L46.1627 59.1398C46.1627 58.4981 45.6422 57.9768 45.0005 57.9768Z" fill="#4067A5"/>
<path d="M40.5615 57.1955C39.9622 56.9764 39.292 57.2865 39.072 57.8901L28.9157 85.7964C28.6958 86.4 29.0075 87.0668 29.6111 87.2868C29.741 87.3344 29.8761 87.3569 30.0086 87.3569C30.4823 87.3569 30.9292 87.0642 31.0998 86.5914L41.2569 58.6842C41.4768 58.0814 41.1642 57.4146 40.5615 57.1955Z" fill="#4067A5"/>
<path d="M36.659 54.9406C36.1662 54.5275 35.4328 54.5942 35.0214 55.0844L15.9317 77.8346C15.5186 78.3256 15.5835 79.0591 16.0754 79.473C16.2928 79.6558 16.5578 79.7441 16.821 79.7441C17.1527 79.7441 17.4826 79.6029 17.7121 79.3293L36.801 56.579C37.2141 56.0872 37.15 55.3545 36.659 54.9406Z" fill="#4067A5"/>
<path d="M33.7607 51.4888C33.4394 50.932 32.7276 50.7432 32.1733 51.0636L6.45447 65.9127C5.89851 66.234 5.70886 66.9432 6.02927 67.4992C6.24404 67.8733 6.63546 68.0811 7.03641 68.0811C7.23386 68.0811 7.43303 68.0317 7.61662 67.9252L33.3355 53.0762C33.8914 52.7558 34.082 52.0448 33.7607 51.4888Z" fill="#4067A5"/>
<path d="M32.221 47.2532C32.1084 46.621 31.5022 46.2027 30.8735 46.311L1.62575 51.4688C0.994451 51.5805 0.57185 52.1832 0.682696 52.8154C0.782285 53.3783 1.2733 53.7758 1.8258 53.7758C1.89334 53.7758 1.96089 53.7697 2.0293 53.7576L31.2762 48.6007C31.9092 48.4881 32.331 47.8862 32.221 47.2532Z" fill="#4067A5"/>
<path d="M1.62575 38.5328L30.8726 43.6897C30.9411 43.7019 31.0086 43.7079 31.0761 43.7079C31.6295 43.7079 32.1197 43.3113 32.2192 42.7476C32.3301 42.1163 31.9084 41.5127 31.2762 41.4018L2.03017 36.244C1.398 36.1323 0.795274 36.554 0.682696 37.1862C0.57185 37.8184 0.994451 38.4211 1.62575 38.5328Z" fill="#4067A5"/>
<path d="M6.45379 24.0882L32.1735 38.9372C32.3571 39.0429 32.5563 39.0931 32.7537 39.0931C33.1547 39.0931 33.5461 38.8844 33.7609 38.512C34.0813 37.9561 33.8908 37.246 33.3357 36.9247L7.61595 22.0757C7.06085 21.7552 6.34901 21.9449 6.0286 22.5009C5.70818 23.056 5.8987 23.7669 6.45379 24.0882Z" fill="#4067A5"/>
<path d="M15.9309 12.1653L35.0215 34.9156C35.2519 35.1892 35.5801 35.3304 35.9126 35.3304C36.1759 35.3304 36.4409 35.2412 36.6582 35.0585C37.1492 34.6454 37.2142 33.9128 36.802 33.4209L17.7114 10.6706C17.2991 10.1805 16.5657 10.1138 16.0738 10.5277C15.8287 10.7339 15.6893 11.0205 15.6624 11.3167C15.6391 11.6137 15.7248 11.9194 15.9309 12.1653Z" fill="#4067A5"/>
<path d="M28.9157 4.20345L39.0728 32.1106C39.2451 32.5826 39.6894 32.8762 40.1648 32.8762C40.2956 32.8762 40.4307 32.8537 40.5614 32.8052C41.1641 32.5852 41.4759 31.9193 41.2559 31.3157L31.0988 3.40847C30.8789 2.80575 30.212 2.49313 29.6093 2.71395C29.1573 2.87849 28.8689 3.29503 28.8455 3.74707C28.8386 3.89775 28.8594 4.05276 28.9157 4.20345Z" fill="#4067A5"/>
<path d="M45.0005 32.0232C45.6414 32.0232 46.1627 31.5028 46.1627 30.8611V1.16215C46.1627 0.520456 45.6422 0 45.0005 0C44.3588 0 43.8384 0.520456 43.8384 1.16215V30.8611C43.8392 31.5028 44.3588 32.0232 45.0005 32.0232Z" fill="#4067A5"/>
<path d="M45.0002 35.8977C39.981 35.8977 35.897 39.9808 35.897 45.0001C35.897 50.0193 39.981 54.1042 45.0002 54.1042C50.0194 54.1042 54.1034 50.0193 54.1034 45.0001C54.1034 39.9808 50.0194 35.8977 45.0002 35.8977ZM45.0002 51.779C41.2626 51.779 38.2221 48.7385 38.2221 45.0001C38.2221 41.2625 41.2626 38.222 45.0002 38.222C48.7369 38.222 51.7783 41.2625 51.7783 45.0001C51.7791 48.7368 48.7378 51.779 45.0002 51.779Z" fill="#4067A5"/>
</g>
<defs>
<clipPath id="clip0">
<rect width="89.9992" height="90" fill="white"/>
</clipPath>
</defs>
</svg>
