<svg width="90" height="90" viewBox="0 0 90 90" fill="none" xmlns="http://www.w3.org/2000/svg">
<path d="M89.463 26.4426C89.4579 26.4087 89.4514 26.3749 89.4436 26.3413C88.9399 23.6584 88.1035 21.0918 86.9792 18.6852C86.9483 18.5934 86.907 18.5048 86.8554 18.4205C85.8095 16.2339 84.5251 14.1824 83.0357 12.3001C82.9805 12.2075 82.915 12.1196 82.8352 12.0398C82.8244 12.0291 82.8127 12.0199 82.8016 12.0096C81.3386 10.2034 79.685 8.55773 77.8718 7.10297C77.8616 7.09207 77.8525 7.08064 77.8419 7.06992C77.76 6.98818 77.6695 6.92068 77.574 6.86496C75.6842 5.38488 73.6253 4.11135 71.4326 3.07617C71.3491 3.02502 71.2612 2.98441 71.1705 2.95365C68.75 1.83744 66.1695 1.01074 63.4729 0.521016C63.4393 0.513457 63.4055 0.507129 63.3716 0.502207C61.5238 0.172266 59.6222 0 57.681 0C56.1881 0 54.7195 0.104062 53.28 0.300762C53.2754 0.301113 53.2709 0.302168 53.2661 0.302695C39.616 2.17582 28.6559 12.6037 25.9864 25.9873C22.4828 26.6854 19.1087 27.9592 16.0151 29.7701C15.3854 30.1387 15.174 30.9479 15.5424 31.5775C15.911 32.2072 16.7203 32.4186 17.3496 32.0502C19.9092 30.5518 22.6788 29.4543 25.5563 28.7831C25.4294 29.9447 25.3621 31.124 25.3621 32.319C25.3621 34.2584 25.5342 36.1584 25.8632 38.0044C25.8685 38.0406 25.875 38.0767 25.8833 38.1124C26.373 40.8081 27.1995 43.3877 28.3154 45.8074C28.3461 45.8984 28.3871 45.9865 28.4382 46.0703C29.4736 48.2628 30.7468 50.3216 32.2269 52.2114C32.2828 52.3069 32.3501 52.3974 32.432 52.4793C32.4424 52.4899 32.4538 52.4987 32.4645 52.5087C33.9195 54.322 35.5651 55.9758 37.3716 57.4392C37.382 57.4502 37.3911 57.4618 37.4019 57.4726C37.4815 57.5522 37.5694 57.6179 37.6618 57.673C39.5443 59.1625 41.5958 60.447 43.7824 61.4929C43.8667 61.5445 43.9555 61.5857 44.0471 61.6166C46.4541 62.7412 49.021 63.5776 51.7045 64.0814C51.7373 64.089 51.7704 64.0953 51.8036 64.1004C53.7101 64.4521 55.6743 64.6376 57.681 64.6376C58.8763 64.6376 60.056 64.5703 61.2179 64.4432C58.1493 77.5596 46.357 87.3577 32.3188 87.3577C15.9548 87.3577 2.64164 74.0445 2.64164 57.6805C2.64164 49.429 5.94738 41.7639 11.9498 36.0969C12.4803 35.5961 12.5042 34.76 12.0036 34.2295C11.5026 33.699 10.6666 33.6751 10.1363 34.1757C6.9692 37.1658 4.47662 40.6946 2.72813 44.6643C0.918106 48.7753 0 53.1545 0 57.681C0 75.5019 14.4984 90 32.3191 90C47.9732 90 61.0617 78.8126 64.0135 64.0134C77.4754 61.3281 87.9481 50.2557 89.7309 36.4941C89.7318 36.486 89.7335 36.4781 89.7342 36.4702C89.9093 35.1107 90 33.7252 90 32.319C90 30.3126 89.8146 28.3488 89.463 26.4426ZM81.756 14.9868C82.6378 16.2083 83.4302 17.4983 84.1208 18.8487L60.7134 42.2561C59.991 40.9315 59.178 39.6635 58.284 38.4588L81.756 14.9868ZM80.1058 12.9004L56.6142 36.392C55.6453 35.2876 54.6035 34.2487 53.4943 33.2851L76.9836 9.79594C78.0987 10.7529 79.1431 11.7904 80.1058 12.9004ZM74.8893 8.15361L51.4172 31.6259C50.2073 30.7366 48.934 29.9287 47.6045 29.2119L71.0082 5.80799C72.3646 6.49248 73.6618 7.27699 74.8893 8.15361ZM63.6149 3.23824C65.2721 3.57609 66.8795 4.05299 68.4246 4.65521L45.0865 27.9932C43.5962 27.3498 42.049 26.8146 40.4536 26.3994L63.6149 3.23824ZM54.0227 2.86752C55.2219 2.71934 56.4427 2.64182 57.6812 2.64182C58.5819 2.64182 59.4728 2.68436 60.3534 2.76328L37.3607 25.756C35.7175 25.4976 34.0339 25.3621 32.3191 25.3621C32.0507 25.3621 31.7827 25.3687 31.5148 25.3754L54.0227 2.86752ZM49.3066 3.84697L29.209 23.9447C32.0498 14.3028 39.6649 6.6876 49.3066 3.84697ZM28.1257 34.9914C28.0466 34.1105 28.0041 33.2197 28.0041 32.319C28.0041 31.0804 28.0816 29.8596 28.2298 28.6604L28.6571 28.2331C29.868 28.083 31.0908 28.0039 32.3193 28.0039C33.22 28.0039 34.1109 28.0464 34.9915 28.1254L28.1257 34.9914ZM28.6003 38.2526L38.2526 28.6003C39.9101 28.938 41.5172 29.4149 43.0624 30.0173L30.0171 43.0627C29.4151 41.5174 28.938 39.9101 28.6003 38.2526ZM33.5159 49.5272C32.6391 48.2996 31.8546 47.0023 31.1701 45.6462L45.6463 31.1699C47.0025 31.8546 48.2998 32.6389 49.5274 33.5157L33.5159 49.5272ZM35.158 51.6215L51.6215 35.158C52.7367 36.1151 53.781 37.1524 54.7437 38.2625L38.2627 54.7436C37.1524 53.781 36.1151 52.7367 35.158 51.6215ZM40.3488 56.3938L56.394 40.3488C57.2759 41.5703 58.0681 42.8602 58.7588 44.2106L44.2104 58.7589C42.8602 58.0679 41.5702 57.2755 40.3488 56.3938ZM51.5704 61.3621C49.9203 61.0154 48.32 60.5322 46.7826 59.9229L59.9231 46.7826C60.5322 48.32 61.0154 49.9203 61.3622 51.5704L51.5704 61.3621ZM61.7984 61.0972L61.0973 61.7982C59.976 61.9274 58.8364 61.9961 57.681 61.9961C56.7132 61.9961 55.7564 61.9479 54.8119 61.8569L61.8569 54.8119C61.9479 55.7562 61.9961 56.713 61.9961 57.681C61.9961 58.8364 61.9276 59.9759 61.7984 61.0972ZM63.5549 49.3777C63.132 47.7886 62.5908 46.2477 61.9414 44.7645L85.2852 21.4209C85.8943 22.9583 86.3775 24.5586 86.7241 26.2085L63.5549 49.3777ZM65.7517 60.8804L86.2427 40.3893C83.4449 50.2771 75.6392 58.0827 65.7517 60.8804ZM87.1604 35.7351L64.6307 58.2648C64.6342 58.0704 64.6381 57.8762 64.6381 57.6809C64.6381 55.902 64.4913 54.157 64.2134 52.4554L87.2191 29.4499C87.3102 30.3942 87.3584 31.3509 87.3584 32.319C87.3582 33.4744 87.2895 34.614 87.1604 35.7351Z" fill="#4067A5"/>
</svg>
