<svg width="90" height="90" viewBox="0 0 90 90" fill="none" xmlns="http://www.w3.org/2000/svg">
<path d="M50.8921 54.0455C50.0306 54.0984 49.1741 54.077 48.2942 53.9627C48.2323 53.9546 48.1727 53.943 48.1135 53.9309C48.7955 56.1136 49.1632 58.4339 49.1632 60.8384C49.1632 73.634 38.7533 84.044 25.9577 84.044C23.788 84.044 21.6403 83.7452 19.5747 83.1554C18.8746 82.955 18.1449 83.3613 17.945 84.0612C17.7452 84.7614 18.1507 85.491 18.8508 85.6909C21.152 86.3476 23.543 86.6807 25.9575 86.6807C40.207 86.6807 51.7998 75.0879 51.7998 60.8384C51.7998 58.4882 51.4827 56.2111 50.8921 54.0455Z" fill="#4067A5"/>
<path d="M70.0267 35.6585C70.5718 33.5693 70.8629 31.3785 70.8629 29.121C70.8629 14.8349 59.2402 3.2124 44.9541 3.2124C40.9755 3.2124 37.158 4.09061 33.6078 5.82293C32.9518 6.14303 32.6793 6.93439 32.9994 7.59041C33.3195 8.24643 34.1109 8.51871 34.7669 8.19861C37.9531 6.64418 41.3805 5.85598 44.9541 5.85598C57.7826 5.85598 68.2193 16.2926 68.2193 29.1212C68.2193 31.2177 67.9389 33.2495 67.4165 35.1831C66.3175 35.0425 65.2034 34.971 64.0912 34.971C63.7029 34.971 63.3159 34.9803 62.9304 34.9972C62.9074 34.9959 62.8849 34.9937 62.8615 34.9937C62.7935 34.9937 62.727 35.0003 62.6616 35.0104C57.5924 35.2837 52.788 37.0093 48.6888 40.0444C47.3377 41.0447 46.1002 42.1599 44.9844 43.3738C43.8683 42.1599 42.631 41.0447 41.2799 40.0444C37.1566 36.9916 32.3198 35.2637 27.2178 35.006C27.1617 34.9987 27.1049 34.9937 27.0468 34.9937C27.0336 34.9937 27.0209 34.9952 27.0079 34.9956C26.6324 34.9796 26.2557 34.9708 25.8776 34.9708C24.7456 34.9708 23.6118 35.0445 22.4937 35.19C21.97 33.2543 21.6889 31.22 21.6889 29.121C21.6889 23.4065 23.7804 17.9121 27.578 13.6501C28.0637 13.105 28.0155 12.2697 27.4704 11.784C26.9255 11.2985 26.0898 11.3465 25.6043 11.8916C21.3748 16.6386 19.0455 22.7575 19.0455 29.1212C19.0455 31.3864 19.3388 33.5842 19.8874 35.6799C8.49586 38.4015 0 48.6659 0 60.8794C0 68.8711 3.60492 76.2936 9.89033 81.244C10.4639 81.6957 11.2948 81.5971 11.7466 81.0236C12.1983 80.4502 12.0996 79.6191 11.526 79.1675C5.88111 74.7216 2.6434 68.0556 2.6434 60.8794C2.6434 49.8444 10.3665 40.5812 20.691 38.2062C23.7006 46.2171 30.5684 52.3549 39.0199 54.3429C38.4745 56.4318 38.1827 58.622 38.1827 60.8794C38.1827 75.1655 49.8053 86.788 64.0914 86.788C78.3775 86.788 90 75.1653 90 60.8794C90 48.6352 81.4616 38.3491 70.0267 35.6585ZM25.7251 42.2024C24.7801 40.8178 23.981 39.3265 23.3492 37.7503C24.1363 37.6654 24.9309 37.6211 25.7251 37.616V42.2024ZM31.2277 47.893C30.2087 47.1458 29.2525 46.3178 28.3685 45.4184V37.7488C29.3354 37.851 30.2899 38.0115 31.2277 38.2315V47.893ZM36.8086 50.9133C35.7943 50.5329 34.813 50.085 33.8713 49.5728V39.0219C34.8776 39.3899 35.858 39.8301 36.8086 40.3381V50.9133ZM64.1834 37.6153C64.9782 37.6184 65.7733 37.6617 66.5617 37.7446C65.9296 39.3228 65.1294 40.8161 64.1834 42.2024V37.6153ZM58.6805 38.2451C59.6183 38.0225 60.5728 37.8598 61.5398 37.755V45.4185C60.6558 46.318 59.6995 47.1459 58.6805 47.8932V38.2451ZM53.0998 40.3712C54.0503 39.8595 55.0304 39.4147 56.0371 39.0431V49.5726C55.0953 50.085 54.1139 50.5329 53.0998 50.9133V40.3712ZM50.262 42.1687C50.326 42.1212 50.3919 42.0775 50.4563 42.0307V51.7272C50.3606 51.7504 50.2654 51.7744 50.1692 51.7966C49.3207 49.5285 48.1556 47.379 46.7002 45.4215C47.7631 44.2295 48.9521 43.1385 50.262 42.1687ZM48.8895 57.2674H41.11C41.2404 56.4353 41.4149 55.6179 41.6313 54.8172C42.7196 54.9571 43.8286 55.0296 44.9541 55.0296C46.1099 55.0296 47.2477 54.9524 48.3637 54.8049C48.5828 55.6146 48.7587 56.4365 48.8895 57.2674ZM44.9847 47.5954C45.9895 49.0387 46.829 50.596 47.487 52.2478C46.6548 52.3383 45.81 52.3862 44.9543 52.3862C44.1185 52.3862 43.293 52.3408 42.4796 52.2545C43.138 50.6004 43.9784 49.0407 44.9847 47.5954ZM39.452 51.727V41.9876C39.5367 42.0486 39.6229 42.1065 39.7069 42.1687C41.0221 43.1423 42.2155 44.2385 43.2816 45.4359C41.8382 47.3771 40.6714 49.5167 39.8157 51.8131C39.694 51.7855 39.5729 51.7565 39.452 51.727ZM40.8261 60.8794C40.8261 60.5535 40.8349 60.2299 40.8482 59.9071C40.8732 59.9085 40.898 59.911 40.9233 59.911H49.153C49.1665 60.2332 49.1737 60.5561 49.1737 60.8794C49.1737 61.512 49.1469 62.1427 49.0954 62.7703H40.9032C40.853 62.1464 40.8261 61.5159 40.8261 60.8794ZM41.2712 65.4137H48.7246C48.5262 66.4098 48.2627 67.391 47.9373 68.351H42.0569C41.7329 67.398 41.4703 66.4172 41.2712 65.4137ZM45.0053 74.1672C44.305 73.164 43.6806 72.1041 43.1425 70.9945H46.8575C46.3263 72.0969 45.707 73.1581 45.0053 74.1672ZM64.0912 84.1444C57.1859 84.1444 50.9746 81.1192 46.7102 76.326C50.0108 71.8814 51.8173 66.4388 51.8173 60.8794C51.8173 58.6547 51.5282 56.4511 50.9709 54.3227C59.3909 52.3127 66.2282 46.1816 69.2242 38.188C79.5909 40.5316 87.3564 49.8143 87.3564 60.8794C87.3564 73.7079 76.9198 84.1444 64.0912 84.1444Z" fill="#4067A5"/>
</svg>
