<svg width="90" height="90" viewBox="0 0 90 90" fill="none" xmlns="http://www.w3.org/2000/svg">
<g clip-path="url(#clip0)">
<path d="M49.9113 26.9082C49.3965 26.3933 48.5617 26.3932 48.047 26.908L46.5982 28.3566C46.0832 28.8715 46.0832 29.7063 46.598 30.221C46.8556 30.4785 47.1929 30.6072 47.5304 30.6072C47.8677 30.6072 48.2052 30.4785 48.4626 30.2212L49.9113 28.7725C50.4262 28.2577 50.4262 27.4229 49.9113 26.9082Z" fill="#4067A5"/>
<path d="M51.1254 34.2026C51.4627 34.2026 51.8002 34.0739 52.0578 33.8164L53.5064 32.3676C54.0212 31.8527 54.0212 31.0179 53.5062 30.5032C52.9915 29.9886 52.1567 29.9884 51.6419 30.5034L50.1933 31.9522C49.6784 32.4671 49.6784 33.3019 50.1934 33.8165C50.4506 34.0737 50.7881 34.2026 51.1254 34.2026Z" fill="#4067A5"/>
<path d="M55.2371 34.0984L53.7885 35.5472C53.2736 36.062 53.2736 36.8968 53.7886 37.4115C54.046 37.6689 54.3835 37.7975 54.7208 37.7975C55.0581 37.7975 55.3956 37.6689 55.6532 37.4113L57.1018 35.9626C57.6167 35.4477 57.6167 34.6129 57.1016 34.0982C56.5869 33.5835 55.7521 33.5834 55.2371 34.0984Z" fill="#4067A5"/>
<path d="M57.3837 41.0069C57.6412 41.2643 57.9787 41.3929 58.316 41.3929C58.6534 41.3929 58.9909 41.2643 59.2484 41.0069L60.6972 39.5581C61.212 39.0431 61.212 38.2085 60.6972 37.6936C60.1821 37.1789 59.3475 37.1789 58.8327 37.6936L57.3839 39.1424C56.8688 39.6573 56.8688 40.4919 57.3837 41.0069Z" fill="#4067A5"/>
<path d="M10.8794 74.8611L8.44686 77.2935C7.9318 77.8084 7.9318 78.6432 8.44669 79.1579C8.9614 79.6726 9.79622 79.6732 10.3111 79.1581L12.7437 76.7257C13.2587 76.2108 13.2587 75.376 12.7438 74.8613C12.229 74.3466 11.3943 74.3462 10.8794 74.8611Z" fill="#4067A5"/>
<path d="M61.3117 64.9742L53.4351 60.4268C52.5527 59.9173 51.4568 59.9173 50.5745 60.4268L42.6976 64.9742C41.8155 65.4837 41.2676 66.4329 41.2676 67.4516V76.5468C41.2676 77.5655 41.8155 78.5145 42.6978 79.0242L50.5745 83.5716C51.0158 83.8264 51.5103 83.9536 52.0049 83.9536C52.4996 83.9536 52.9941 83.8264 53.4353 83.5716L61.3119 79.0242C62.1942 78.5149 62.7423 77.5655 62.7423 76.5468V67.4516C62.7419 66.4329 62.1938 65.4837 61.3117 64.9742ZM60.1051 76.5469C60.1051 76.6266 60.0622 76.7009 59.9931 76.7408L52.1166 81.2883C52.0475 81.3282 51.9617 81.3282 51.8928 81.2883L44.0162 76.7408C43.9471 76.7009 43.9042 76.6267 43.9042 76.5469V67.4518C43.9042 67.3722 43.9471 67.2978 44.016 67.2579L51.8928 62.7104C51.9272 62.6906 51.9661 62.6805 52.0048 62.6805C52.0434 62.6805 52.0821 62.6906 52.1167 62.7104L59.9933 67.2579C60.0624 67.2978 60.1053 67.372 60.1053 67.4518V76.5469H60.1051Z" fill="#4067A5"/>
<path d="M52.0047 67.1331C49.3213 67.1331 47.1382 69.3162 47.1382 71.9996C47.1382 74.683 49.3213 76.8659 52.0047 76.8659C54.6881 76.8659 56.8711 74.683 56.8711 71.9996C56.8711 69.3162 54.6881 67.1331 52.0047 67.1331ZM52.0047 74.2289C50.7753 74.2289 49.775 73.2289 49.775 71.9994C49.775 70.7699 50.7751 69.7697 52.0047 69.7697C53.234 69.7697 54.2343 70.7698 54.2343 71.9994C54.2343 73.2289 53.234 74.2289 52.0047 74.2289Z" fill="#4067A5"/>
<path d="M74.3965 61.362C74.3965 64.0454 76.5796 66.2285 79.263 66.2285C81.9464 66.2285 84.1294 64.0454 84.1294 61.362C84.1294 58.6785 81.9464 56.4956 79.263 56.4956C76.5796 56.4956 74.3965 58.6785 74.3965 61.362ZM81.4924 61.362C81.4924 62.5914 80.4923 63.5917 79.2628 63.5917C78.0334 63.5917 77.0331 62.5916 77.0331 61.362C77.0331 60.1327 78.0332 59.1324 79.2628 59.1324C80.4923 59.1324 81.4924 60.1327 81.4924 61.362Z" fill="#4067A5"/>
<path d="M88.5697 54.3372L80.6931 49.7897C79.811 49.2805 78.7148 49.2803 77.8325 49.7897L69.9556 54.3372C69.0733 54.8466 68.5254 55.7961 68.5254 56.8146V65.9097C68.5254 66.9282 69.0733 67.8775 69.9558 68.3871L77.8324 72.9346C78.2736 73.1893 78.7681 73.3168 79.2629 73.3168C79.7574 73.3168 80.2521 73.1893 80.6931 72.9346L83.5188 71.3033C84.1493 70.9392 84.3654 70.1329 84.0013 69.5023C83.6374 68.8716 82.8306 68.6561 82.2004 69.0198L79.3746 70.6511C79.3058 70.691 79.22 70.691 79.1511 70.6511L71.2745 66.1036C71.2053 66.0637 71.1624 65.9895 71.1624 65.9097V56.8146C71.1624 56.735 71.2053 56.6606 71.2744 56.6207L79.1513 52.0732C79.22 52.0333 79.3058 52.0333 79.3747 52.0732L87.2513 56.6207C87.3206 56.6606 87.3635 56.7348 87.3635 56.8146V65.9097C87.3635 65.9894 87.3206 66.0637 87.2517 66.1036L86.7783 66.377C86.1475 66.7409 85.9315 67.5472 86.2955 68.1777C86.6594 68.8087 87.4659 69.0242 88.0963 68.6605L88.5701 68.3869C89.4524 67.8777 90.0003 66.9282 90.0003 65.9097V56.8146C90.0001 55.7961 89.4522 54.8466 88.5697 54.3372Z" fill="#4067A5"/>
<path d="M56.7014 49.2364C64.5119 50.8564 72.5759 48.4778 78.2491 42.8046C84.927 36.1271 86.8156 26.3919 83.7457 17.9667C83.5913 17.5436 83.2318 17.2284 82.792 17.131C82.3522 17.0338 81.8932 17.1676 81.5745 17.4859L70.7448 28.3157L61.71 25.8949L59.289 16.8601L60.5874 15.5619C61.1023 15.0468 61.1023 14.2122 60.5874 13.6973C60.0725 13.1828 59.2379 13.1824 58.7228 13.6973L56.8864 15.5338C56.5532 15.8671 56.4233 16.3524 56.5453 16.8074L59.3604 27.3127C59.4822 27.7676 59.8377 28.1229 60.2926 28.2449L70.7979 31.0598C71.2529 31.1814 71.7384 31.0519 72.0715 30.7188L81.8927 20.8974C83.6929 28.0148 81.6372 35.6881 76.385 40.9402C71.3619 45.9635 64.2041 48.1001 57.2374 46.6547C53.4006 45.8589 49.4245 47.167 46.8602 50.0685L18.8588 81.7481C18.8548 81.7525 18.8508 81.7573 18.8469 81.7619C17.9752 82.776 16.9211 83.5718 15.7142 84.1269C15.0525 84.431 14.763 85.2142 15.0673 85.8755C15.3719 86.5379 16.155 86.8263 16.8158 86.5224C18.3668 85.809 19.7209 84.7881 20.8405 83.4876L48.8359 51.8147C50.7751 49.6203 53.7886 48.6316 56.7014 49.2364Z" fill="#4067A5"/>
<path d="M11.0999 84.9384C8.92522 84.7619 6.87728 83.8145 5.33386 82.2709C1.55791 78.4953 1.74601 72.2805 5.84329 68.7586C5.84786 68.7547 5.85261 68.7507 5.857 68.7466L37.5366 40.7452C40.438 38.1808 41.746 34.2045 40.9504 30.3679C39.5053 23.4016 41.6415 16.2436 46.6648 11.2204C51.9168 5.96823 59.5897 3.9122 66.7075 5.71281L62.4501 9.97006C61.9352 10.4851 61.9352 11.3198 62.4501 11.8347C62.9652 12.3494 63.7998 12.3494 64.3147 11.8347L70.1189 6.03046C70.4374 5.71193 70.5712 5.25277 70.4738 4.81295C70.3764 4.37312 70.0612 4.01363 69.6381 3.85929C61.212 0.789141 51.4779 2.67834 44.8002 9.35568C39.1468 15.0092 36.7424 23.0642 38.3686 30.9032C38.9726 33.8158 37.9847 36.8301 35.7905 38.7695L4.11722 66.7653C-1.1016 71.2585 -1.40483 79.2613 3.46926 84.1354C5.45462 86.1209 8.08882 87.3395 10.8865 87.5666C11.6104 87.6249 12.2482 87.0867 12.3072 86.3591C12.3663 85.6332 11.8257 84.9972 11.0999 84.9384Z" fill="#4067A5"/>
</g>
<defs>
<clipPath id="clip0">
<rect width="90" height="90" fill="white"/>
</clipPath>
</defs>
</svg>
