<?xml version="1.0" standalone="no"?>
<!DOCTYPE svg PUBLIC "-//W3C//DTD SVG 20010904//EN"
 "http://www.w3.org/TR/2001/REC-SVG-20010904/DTD/svg10.dtd">
<svg version="1.0" xmlns="http://www.w3.org/2000/svg"
 width="1248.000000pt" height="1248.000000pt" viewBox="0 0 1248.000000 1248.000000"
 preserveAspectRatio="xMidYMid meet">
<metadata>
Created by potrace 1.11, written by Peter Selinger 2001-2013
</metadata>
<g transform="translate(0.000000,1248.000000) scale(0.100000,-0.100000)"
fill="#000000" stroke="none">
<path d="M4635 9109 c-709 -709 -1290 -1289 -1290 -1289 0 0 -248 -248 -550
-550 -488 -488 -550 -554 -552 -583 -1 -17 -2 -36 -3 -42 -1 -5 -1 -14 0 -20
1 -5 2 -28 1 -50 -1 -22 -1 -47 -1 -55 -1 -8 1 -34 2 -58 2 -23 0 -42 -3 -42
-4 0 -4 -15 1 -33 4 -18 3 -43 -1 -55 -5 -12 -5 -22 -1 -22 4 0 6 -19 4 -42
-2 -49 -2 -107 1 -191 1 -33 -1 -61 -5 -63 -4 -3 -3 -15 1 -27 5 -12 5 -32 0
-44 -5 -13 -5 -23 -1 -23 8 0 8 -52 0 -66 -3 -5 -2 -18 2 -29 4 -11 4 -29 1
-40 -4 -11 -6 -31 -4 -45 2 -14 4 -44 4 -67 1 -24 4 -43 8 -43 3 0 130 124
281 275 151 151 277 275 280 275 3 0 5 -921 5 -2047 l0 -2048 370 -3 370 -2 0
2424 -1 2425 1192 1190 1192 1189 68 -65 c38 -36 133 -127 210 -202 78 -75
221 -212 319 -306 97 -93 214 -206 260 -250 45 -44 95 -92 111 -106 16 -15 36
-35 45 -45 9 -11 85 -84 169 -164 84 -80 190 -181 236 -225 45 -44 157 -152
249 -240 92 -88 214 -205 270 -260 57 -55 172 -166 257 -248 l154 -147 0
-1922 c-1 -1354 2 -1925 10 -1932 7 -8 127 -11 370 -10 l359 0 1 1567 c1 862
3 1570 6 1572 4 4 40 -30 331 -311 70 -68 131 -124 135 -124 4 0 7 241 7 535
l0 536 -95 91 c-179 172 -472 453 -560 538 -48 47 -170 164 -270 260 -100 96
-220 211 -265 255 -46 44 -163 157 -260 250 -98 94 -218 210 -269 258 -90 87
-423 408 -538 518 -32 31 -136 130 -230 220 -94 90 -210 202 -258 249 -48 47
-176 171 -285 275 -109 105 -233 224 -276 265 -167 161 -245 235 -259 246 -12
10 -246 -219 -1305 -1277z"/>
<path d="M9604 9910 c-44 -34 -90 -69 -102 -78 -26 -19 -88 -66 -112 -85 -12
-10 -110 -83 -188 -142 -7 -5 -22 -18 -33 -27 -10 -10 -23 -18 -28 -18 -5 0
-11 -4 -13 -8 -1 -4 -46 -40 -98 -79 -52 -40 -99 -76 -105 -80 -5 -5 -95 -73
-200 -153 -104 -79 -196 -150 -203 -157 -7 -7 -16 -13 -20 -13 -4 0 -21 -13
-39 -28 -17 -15 -60 -49 -95 -75 -35 -26 -123 -93 -195 -148 l-133 -101 59
-57 c91 -87 458 -439 521 -501 31 -30 146 -140 255 -245 109 -104 235 -226
280 -270 76 -74 332 -320 513 -493 l76 -73 0 -875 c1 -482 -2 -880 -5 -885 -3
-5 -58 41 -122 103 -248 241 -340 328 -346 328 -8 0 -7 -2568 2 -2576 4 -4
698 -8 1542 -8 1357 -1 1536 1 1539 14 3 8 4 722 4 1586 l-1 1571 -46 50 c-25
27 -77 85 -116 128 -38 42 -81 90 -95 105 -24 26 -150 164 -240 263 -25 27
-56 62 -70 77 -14 15 -59 64 -100 110 -41 45 -86 95 -100 110 -14 15 -42 46
-63 69 l-38 42 -342 0 -342 0 1 647 c1 356 2 652 3 659 1 10 230 -124 268
-157 7 -5 15 -10 19 -10 4 0 30 -15 58 -33 28 -19 67 -42 86 -53 19 -10 41
-25 48 -31 35 -33 38 -20 36 194 -1 142 -4 174 -17 187 -8 9 -18 16 -22 16 -4
0 -12 6 -19 13 -7 6 -61 50 -120 97 -60 47 -199 157 -310 245 -111 88 -219
174 -240 190 -21 17 -46 37 -56 45 -9 8 -32 26 -51 40 -18 14 -50 40 -70 58
-20 17 -42 32 -48 32 -6 0 -11 4 -11 8 0 5 -21 24 -47 42 -27 19 -50 37 -53
40 -6 7 -151 124 -200 160 -18 14 -38 30 -44 35 -6 6 -42 35 -81 65 -38 29
-78 62 -88 72 -10 10 -21 18 -25 18 -4 0 -20 13 -37 28 -32 29 -90 72 -98 72
-2 0 -40 -27 -83 -60z m1439 -4239 c4 0 6 -117 5 -258 l-3 -258 -235 -1 c-129
0 -240 1 -246 3 -7 3 -10 83 -9 261 1 141 3 257 4 257 3 2 477 -2 484 -4z
m700 -258 c-2 -141 -5 -259 -9 -262 -3 -3 -113 -6 -245 -6 -205 0 -239 2 -240
15 -3 41 -5 496 -2 502 2 3 114 6 251 7 l247 0 -2 -256z m-687 -502 c7 -1 11
-81 10 -259 l0 -258 -245 0 -246 1 -3 250 c-1 137 -1 254 2 260 3 8 423 14
482 6z m698 -249 c1 -159 -3 -256 -9 -260 -14 -10 -468 -11 -480 -1 -8 6 -13
439 -6 504 1 7 88 10 248 10 l246 0 1 -253z"/>
<path d="M1705 8657 c-152 -150 -890 -877 -891 -877 0 0 -222 -218 -636 -626
l-178 -175 0 -2430 c0 -1336 3 -2429 8 -2430 4 0 583 -3 1287 -5 l1281 -4 0
1739 c-1 1544 -2 1738 -16 1728 -8 -7 -135 -132 -282 -279 -147 -148 -269
-268 -270 -268 -2 0 -3 406 -3 903 l0 902 427 426 427 427 -22 24 c-12 13 -53
59 -92 102 -156 173 -268 297 -285 315 -9 9 -56 61 -105 116 -50 55 -99 109
-110 121 -26 27 -160 176 -204 226 -19 22 -51 57 -72 79 -20 21 -52 56 -72 78
-19 21 -38 40 -43 43 -5 2 -72 -58 -149 -135z m-829 -3014 l1 -261 -247 0
-248 0 0 256 c0 141 4 259 8 262 5 3 115 5 247 5 l238 0 1 -262z m694 -9 l0
-261 -247 1 -248 1 0 245 c0 135 1 252 3 260 3 13 38 15 248 15 l244 0 0 -261z
m-680 -501 c3 -7 5 -124 5 -260 l-1 -248 -74 -2 c-41 -1 -79 -3 -85 -4 -5 -1
-14 0 -20 1 -24 5 -155 3 -161 -3 -3 -3 -12 -3 -20 0 -8 3 -41 6 -72 7 l-57 1
-6 35 c-3 19 -2 45 3 58 4 12 4 22 -1 22 -5 0 -5 17 -2 38 4 20 4 51 0 69 -3
17 -3 37 1 44 4 6 4 25 0 40 -5 16 -5 31 0 34 4 3 4 20 0 39 -4 19 -4 40 0 46
4 7 4 25 0 40 -16 54 -13 55 247 55 177 0 239 -3 243 -12z m685 8 c12 -1 14
-499 2 -518 -5 -9 -15 -9 -32 -3 -15 6 -27 6 -30 -1 -4 -5 -11 -7 -16 -3 -5 3
-99 5 -209 5 -148 0 -200 3 -201 12 -1 15 -1 174 0 367 l1 145 238 -2 c130 0
242 -2 247 -2z m-665 -1210 c0 -198 -3 -260 -12 -263 -11 -3 -423 -3 -468 1
-13 1 -15 35 -14 259 1 141 2 258 3 259 0 1 111 2 246 2 l245 0 0 -258z m302
248 c9 3 102 5 206 3 l190 -3 0 -259 c0 -260 0 -260 -21 -261 -33 -1 -440 -1
-460 0 -16 1 -17 19 -17 260 l1 260 32 3 c18 2 37 0 42 -3 6 -4 18 -4 27 0z
m-282 -1010 c0 -142 -3 -260 -7 -260 -21 -3 -469 -4 -479 -1 -8 2 -11 83 -11
261 l0 258 248 1 248 1 1 -260z m685 1 c0 -222 -2 -259 -15 -262 -13 -3 -445
-2 -475 1 -6 1 -10 92 -9 254 1 138 2 255 3 258 0 4 113 7 249 7 l248 1 -1
-259z"/>
<path d="M5895 8446 c-37 -42 -207 -226 -255 -277 -20 -21 -76 -82 -125 -135
-50 -54 -110 -119 -135 -145 -25 -26 -85 -91 -135 -145 -49 -53 -109 -118
-133 -143 -24 -25 -74 -80 -112 -121 -38 -41 -92 -100 -122 -131 -29 -31 -96
-103 -148 -159 -52 -57 -116 -125 -142 -152 -27 -27 -48 -51 -48 -53 0 -1 -21
-25 -47 -52 -55 -56 -148 -156 -278 -298 -49 -54 -116 -125 -147 -158 -45 -47
-58 -68 -58 -91 -1 -46 -1 -4279 0 -4293 0 -10 842 -13 4178 -13 l4178 0 -1
284 c0 156 -3 288 -7 292 -4 4 -1762 7 -3905 7 -2144 0 -3902 1 -3908 4 -13 4
-12 3482 1 3505 5 9 38 47 73 85 156 167 280 300 305 328 15 17 73 79 129 139
127 135 171 183 272 292 44 47 96 103 115 124 19 20 85 90 145 156 61 65 129
138 153 162 23 24 42 45 42 47 0 1 35 39 78 84 l78 81 124 -131 c69 -72 150
-157 180 -188 70 -73 338 -356 450 -474 47 -49 110 -115 140 -147 30 -31 108
-113 174 -183 l118 -126 380 1 c208 0 378 4 376 8 -2 5 -74 82 -160 172 -86
89 -180 188 -208 218 -29 30 -116 122 -193 204 -150 157 -151 157 -377 396
-80 84 -165 174 -190 200 -25 26 -101 106 -170 179 -69 73 -154 162 -190 200
-125 131 -368 386 -412 434 -25 26 -47 47 -49 46 -2 0 -17 -15 -34 -33z"/>
<path d="M5363 5406 l2 -371 347 -1 c306 0 348 2 352 15 2 9 3 176 3 371 l-2
355 -352 1 -351 1 1 -371z"/>
<path d="M6348 5756 c-3 -9 -2 -709 1 -727 1 -3 159 -5 351 -5 l350 0 1 30 c0
35 0 267 0 532 l-1 180 -350 1 c-244 0 -350 -3 -352 -11z"/>
<path d="M5389 4691 c-1 -8 -1 -702 0 -721 1 -13 47 -15 351 -15 344 0 350 0
350 20 1 27 1 617 0 676 l0 46 -350 0 c-192 0 -350 -3 -351 -6z"/>
<path d="M6363 4326 l0 -371 351 0 351 0 0 370 0 370 -351 1 -350 1 -1 -371z"/>
</g>
</svg>
